<svg width="537" height="537" viewBox="0 0 537 537" fill="none" xmlns="http://www.w3.org/2000/svg">
<path d="M518 268C518 407.368 406.071 520.347 268 520.347C129.929 520.347 18 407.368 18 268C18 128.632 129.929 15.6526 268 15.6526C406.071 15.6526 518 128.632 518 268ZM142.408 268C142.408 338.014 198.637 394.772 268 394.772C337.363 394.772 393.592 338.014 393.592 268C393.592 197.986 337.363 141.228 268 141.228C198.637 141.228 142.408 197.986 142.408 268Z" fill="black" fill-opacity="0.05"/>
<path d="M518 268C518 407.368 406.071 520.347 268 520.347C129.929 520.347 18 407.368 18 268C18 128.632 129.929 15.6526 268 15.6526C406.071 15.6526 518 128.632 518 268ZM142.257 268C142.257 338.098 198.554 394.923 268 394.923C337.446 394.923 393.743 338.098 393.743 268C393.743 197.902 337.446 141.077 268 141.077C198.554 141.077 142.257 197.902 142.257 268Z" fill="#8C007E"/>
<path d="M224.354 236.803C225.232 236.398 226.184 235.894 227.228 235.259C223.841 248.773 221.846 262.923 220.18 276.218C219.576 281.114 218.999 285.9 218.697 290.784C218.642 291.682 218.551 292.602 218.459 293.511C218.175 296.358 217.882 299.304 218.468 302.382C219.091 305.667 221.004 307.781 223.347 307.781C224.445 307.781 225.553 307.321 226.624 306.401C229.507 303.937 229.553 299.775 229.598 296.731C229.607 296.107 229.607 295.504 229.644 294.935C229.91 290.368 230.358 285.582 231.017 280.281L231.218 278.639C233.424 260.919 235.703 242.597 242.513 226.782L243.117 225.381C245.451 220.069 248.646 212.786 246.641 206.073C245.891 203.565 243.941 201.944 241.671 201.944C240.683 201.944 239.685 202.273 238.779 202.897C237.186 204.025 236.07 205.755 235.09 207.278C234.596 208.044 234.129 208.778 233.653 209.336C230.733 212.83 227.868 216.192 224.802 218.996C223.383 220.299 221.855 221.504 220.546 222.533C220.345 222.698 220.052 222.884 219.722 223.103C219.045 223.563 218.267 224.088 217.672 224.625C217.388 224.888 217.068 225.14 216.766 225.392C215.118 226.728 212.363 228.951 213.242 233.364C213.535 234.799 214.532 237.285 217.992 237.756C220.29 238.063 222.175 237.778 224.354 236.803Z" fill="#8C007E"/>
<path d="M240.188 274.652C242.156 279.361 245.424 282.581 249.918 284.224C251.126 284.662 252.353 284.892 253.589 284.892C265.552 284.892 274.156 264.774 276.453 257.031C277.359 253.997 278.101 251.106 278.705 248.324C278.75 249.047 278.805 249.759 278.888 250.482C279.583 256.505 281.725 261.477 285.094 264.85C287.299 267.063 290.558 268.673 293.826 269.165C295.107 269.363 296.453 269.461 297.743 269.461C300.169 269.461 302.256 269.122 303.921 268.443C305.404 267.84 306.85 267.03 308.223 266.022C314.42 261.455 317.917 253.954 319.756 248.456C324.15 235.38 324.882 216.455 316.132 205.81C314.036 203.258 311.409 201.397 308.544 200.422C307.995 200.236 307.436 200.104 306.869 199.973L306.265 199.83C306.036 199.776 305.798 199.666 305.569 199.579C305.267 199.458 304.956 199.338 304.654 199.239C304.169 199.097 303.72 199.02 303.226 199.02H303.217C301.835 199.042 300.663 199.48 299.62 199.874C299.089 200.071 298.558 200.279 297.999 200.4C294.878 201.09 291.922 202.36 289.075 203.587C287.391 204.321 285.789 205.011 284.151 205.591C279.84 207.113 276.316 207.179 271.245 205.744L270.87 205.635C269.799 205.317 268.874 205.032 267.153 205.503C266.311 205.722 265.167 206.029 264.197 207.529L263.941 208.022L263.849 208.241L263.602 208.395C254.147 214.571 246.275 226.717 241.442 242.575C239.566 248.653 235.74 263.963 240.188 274.652ZM249.332 258.75C250.083 248.226 254.22 236.891 260.71 227.659C263.282 224.001 265.103 222.15 266.137 222.15C266.549 222.15 267.272 223.015 267.977 225.446C269.332 230.123 269.497 235.664 268.462 241.918C268.096 244.119 267.584 246.386 266.925 248.631C265.35 254.041 263.474 259.681 260.371 264.215C259.172 265.968 257.424 267.435 255.575 268.224C253.506 269.111 251.996 268.946 250.962 267.588C249.68 265.935 249.058 262.551 249.332 258.75ZM292.077 232.182C292.919 228.82 294.302 225.403 296.187 222.04L296.443 221.591C297.459 219.784 299.812 215.557 301.249 214.823C301.761 214.56 302.246 214.32 302.695 214.1H302.704C305.121 214.1 306.951 215.042 308.306 216.981C311.363 221.361 311.381 229.871 310.457 235.829C308.873 246.145 304.965 252.431 298.512 255.016C295.958 256.034 294.192 255.684 292.938 253.68C290.082 249.08 290.613 238.041 292.077 232.182ZM280.233 227.221C280.05 225.523 279.785 223.869 279.437 222.292C279.355 221.92 279.236 221.537 279.107 221.142C279.492 221.033 279.977 220.978 280.48 220.923C281.03 220.869 281.57 220.803 282.082 220.682C282.613 220.562 283.116 220.42 283.574 220.277C282.091 223.453 281.149 226.892 280.453 230.178C280.407 229.17 280.343 228.184 280.233 227.221Z" fill="#8C007E"/>
<path d="M300.928 276.602L297.899 277.16C280.444 280.303 265.131 284.629 251.099 290.39C247.209 291.978 243.026 293.829 238.294 296.019C237.937 296.183 237.58 296.315 237.223 296.446C235.594 297.048 232.198 298.297 232.628 303.225C232.921 306.445 234.797 308.701 237.186 308.701H237.424C238.34 308.646 239.191 308.219 239.941 307.847C240.234 307.704 240.518 307.551 240.774 307.463C242.083 307.047 243.465 306.532 245.131 305.843C260.334 299.578 275.593 293.894 290.476 288.966L295.189 287.422C297.661 286.611 300.141 285.812 302.603 284.98C304.37 284.377 305.423 282.483 305.185 280.38C304.901 277.96 303.079 276.207 300.928 276.602Z" fill="#8C007E"/>
<path d="M318.219 287.258L310.649 289.207C295.821 293.018 280.48 296.961 265.671 302.327C256.234 305.744 247.163 309.851 237.14 314.483C232.152 316.783 227.392 319.817 223.383 322.489C223.063 322.708 222.669 322.927 222.248 323.157C220.418 324.187 217.91 325.599 217.104 328.381C216.134 331.721 217.919 335.051 220.198 336.343C220.976 336.781 221.727 337 222.477 337C223.621 337 224.573 336.496 225.278 336.058C225.983 335.609 226.724 335.215 227.466 334.821C228.161 334.448 228.857 334.076 229.525 333.671C249.049 321.985 270.201 313.618 288.48 306.697C294.201 304.528 300.37 302.349 307.363 300.038L308.48 299.666C312.333 298.384 316.196 297.114 320.049 295.811C321.852 295.198 322.932 293.226 322.667 291.025C322.402 288.451 320.36 286.699 318.219 287.258Z" fill="#8C007E"/>
</svg>
