<svg width="537" height="537" viewBox="0 0 537 537" fill="none" xmlns="http://www.w3.org/2000/svg">
<path d="M518 268C518 407.368 406.071 520.347 268 520.347C129.929 520.347 18 407.368 18 268C18 128.632 129.929 15.6526 268 15.6526C406.071 15.6526 518 128.632 518 268ZM142.408 268C142.408 338.014 198.637 394.772 268 394.772C337.363 394.772 393.592 338.014 393.592 268C393.592 197.986 337.363 141.228 268 141.228C198.637 141.228 142.408 197.986 142.408 268Z" fill="black" fill-opacity="0.05"/>
<path d="M517.961 263.544C517.359 229.129 509.788 195.201 495.713 163.849C481.639 132.496 461.359 104.382 436.121 81.2343L352.56 174.062C365.254 185.705 375.454 199.846 382.533 215.615C389.612 231.384 393.42 248.449 393.723 265.759L517.961 263.544Z" fill="#8C007E"/>
</svg>
