<svg width="537" height="537" viewBox="0 0 537 537" fill="none" xmlns="http://www.w3.org/2000/svg">
<path d="M518 268C518 407.368 406.071 520.347 268 520.347C129.929 520.347 18 407.368 18 268C18 128.632 129.929 15.6526 268 15.6526C406.071 15.6526 518 128.632 518 268ZM142.408 268C142.408 338.014 198.637 394.772 268 394.772C337.363 394.772 393.592 338.014 393.592 268C393.592 197.986 337.363 141.228 268 141.228C198.637 141.228 142.408 197.986 142.408 268Z" fill="black" fill-opacity="0.05"/>
<path d="M517.961 263.544C516.935 204.899 495.702 148.446 457.911 103.889C420.12 59.3319 368.133 29.4549 310.885 19.3931L289.57 142.958C318.364 148.019 344.512 163.046 363.52 185.457C382.527 207.868 393.207 236.262 393.723 265.759L517.961 263.544Z" fill="#8C007E"/>
</svg>
