<svg width="537" height="537" viewBox="0 0 537 537" fill="none" xmlns="http://www.w3.org/2000/svg">
<path d="M518 268C518 407.368 406.071 520.347 268 520.347C129.929 520.347 18 407.368 18 268C18 128.632 129.929 15.6526 268 15.6526C406.071 15.6526 518 128.632 518 268ZM142.408 268C142.408 338.014 198.637 394.772 268 394.772C337.363 394.772 393.592 338.014 393.592 268C393.592 197.986 337.363 141.228 268 141.228C198.637 141.228 142.408 197.986 142.408 268Z" fill="black" fill-opacity="0.05"/>
<path d="M517.961 263.544C517.381 230.411 510.342 197.717 497.245 167.329C484.147 136.942 465.249 109.456 441.628 86.4406C418.007 63.4254 390.126 45.3317 359.578 33.1926C329.029 21.0535 296.411 15.1068 263.586 15.6919L265.78 141.097C282.29 140.802 298.696 143.793 314.061 149.899C329.426 156.004 343.449 165.105 355.33 176.681C367.21 188.257 376.716 202.082 383.303 217.366C389.891 232.65 393.431 249.094 393.723 265.759L517.961 263.544Z" fill="#8C007E"/>
</svg>
