<svg width="537" height="537" viewBox="0 0 537 537" fill="none" xmlns="http://www.w3.org/2000/svg">
<path d="M518 268C518 407.368 406.071 520.347 268 520.347C129.929 520.347 18 407.368 18 268C18 128.632 129.929 15.6526 268 15.6526C406.071 15.6526 518 128.632 518 268ZM142.408 268C142.408 338.014 198.637 394.772 268 394.772C337.363 394.772 393.592 338.014 393.592 268C393.592 197.986 337.363 141.228 268 141.228C198.637 141.228 142.408 197.986 142.408 268Z" fill="black" fill-opacity="0.05"/>
<path d="M517.961 263.544C517.358 229.049 509.753 195.044 495.616 163.632C481.48 132.22 461.112 104.068 435.772 80.9149C410.431 57.7617 380.656 40.0995 348.287 29.0196C315.917 17.9397 281.641 13.6774 247.575 16.4962L257.727 141.501C274.861 140.083 292.101 142.227 308.382 147.8C324.663 153.373 339.639 162.256 352.384 173.902C365.13 185.547 375.374 199.707 382.484 215.506C389.594 231.305 393.419 248.409 393.723 265.759L517.961 263.544Z" fill="#8C007E"/>
</svg>
