<svg width="537" height="537" viewBox="0 0 537 537" fill="none" xmlns="http://www.w3.org/2000/svg">
<path d="M518 268C518 407.368 406.071 520.347 268 520.347C129.929 520.347 18 407.368 18 268C18 128.632 129.929 15.6526 268 15.6526C406.071 15.6526 518 128.632 518 268ZM142.408 268C142.408 338.014 198.637 394.772 268 394.772C337.363 394.772 393.592 338.014 393.592 268C393.592 197.986 337.363 141.228 268 141.228C198.637 141.228 142.408 197.986 142.408 268Z" fill="black" fill-opacity="0.05"/>
<path d="M517.961 263.544C517.335 227.784 509.186 192.567 494.053 160.227C478.921 127.887 457.15 99.164 430.185 75.9614C403.221 52.7587 371.677 35.6069 337.647 25.6429C303.617 15.679 267.877 13.1307 232.797 18.1668L250.294 142.341C267.938 139.808 285.914 141.09 303.031 146.102C320.147 151.113 336.012 159.74 349.574 171.41C363.137 183.081 374.087 197.528 381.698 213.793C389.309 230.059 393.408 247.773 393.723 265.759L517.961 263.544Z" fill="#8C007E"/>
</svg>
