<svg width="537" height="537" viewBox="0 0 537 537" fill="none" xmlns="http://www.w3.org/2000/svg">
<path d="M518 268C518 407.368 406.071 520.347 268 520.347C129.929 520.347 18 407.368 18 268C18 128.632 129.929 15.6526 268 15.6526C406.071 15.6526 518 128.632 518 268ZM142.408 268C142.408 338.014 198.637 394.772 268 394.772C337.363 394.772 393.592 338.014 393.592 268C393.592 197.986 337.363 141.228 268 141.228C198.637 141.228 142.408 197.986 142.408 268Z" fill="black" fill-opacity="0.05"/>
<path d="M517.961 263.544C517.31 226.338 508.515 189.737 492.205 156.363C475.896 122.99 452.476 93.6712 423.623 70.5066C394.771 47.342 361.2 30.9052 325.315 22.3738C289.43 13.8424 252.121 13.4276 216.059 21.1591L241.875 143.846C260.013 139.958 278.779 140.166 296.828 144.457C314.877 148.748 331.762 157.016 346.274 168.667C360.786 180.318 372.565 195.064 380.769 211.85C388.972 228.636 393.396 247.045 393.723 265.759L517.961 263.544Z" fill="#8C007E"/>
</svg>
