<svg width="537" height="537" viewBox="0 0 537 537" fill="none" xmlns="http://www.w3.org/2000/svg">
<path d="M518 268C518 407.368 406.071 520.347 268 520.347C129.929 520.347 18 407.368 18 268C18 128.632 129.929 15.6526 268 15.6526C406.071 15.6526 518 128.632 518 268ZM142.408 268C142.408 338.014 198.637 394.772 268 394.772C337.363 394.772 393.592 338.014 393.592 268C393.592 197.986 337.363 141.228 268 141.228C198.637 141.228 142.408 197.986 142.408 268Z" fill="black" fill-opacity="0.05"/>
<path d="M517.961 263.544C517.288 225.065 507.904 187.251 490.528 152.995C473.152 118.739 448.244 88.9481 417.709 65.9019C387.174 42.8556 351.821 27.1643 314.355 20.0284C276.889 12.8925 238.302 14.501 201.546 24.731L234.576 145.643C253.063 140.498 272.471 139.689 291.315 143.278C310.159 146.867 327.941 154.759 343.299 166.351C358.657 177.942 371.185 192.926 379.925 210.156C388.665 227.386 393.384 246.405 393.723 265.759L517.961 263.544Z" fill="#8C007E"/>
</svg>
