<svg width="537" height="537" viewBox="0 0 537 537" fill="none" xmlns="http://www.w3.org/2000/svg">
<path d="M518 268C518 407.368 406.071 520.347 268 520.347C129.929 520.347 18 407.368 18 268C18 128.632 129.929 15.6526 268 15.6526C406.071 15.6526 518 128.632 518 268ZM142.408 268C142.408 338.014 198.637 394.772 268 394.772C337.363 394.772 393.592 338.014 393.592 268C393.592 197.986 337.363 141.228 268 141.228C198.637 141.228 142.408 197.986 142.408 268Z" fill="black" fill-opacity="0.05"/>
<path d="M517.961 263.544C517.264 223.701 507.229 184.591 488.677 149.416C470.125 114.241 443.584 84.0006 411.226 61.1707C378.869 38.3409 341.615 23.5706 302.515 18.069C263.414 12.5675 223.579 16.4912 186.269 29.5188L226.892 148.051C245.657 141.499 265.693 139.525 285.36 142.292C305.026 145.059 323.764 152.488 340.039 163.971C356.313 175.454 369.663 190.664 378.994 208.356C388.325 226.048 393.372 245.719 393.723 265.759L517.961 263.544Z" fill="#8C007E"/>
</svg>
