<svg width="537" height="537" viewBox="0 0 537 537" fill="none" xmlns="http://www.w3.org/2000/svg">
<path d="M518 268C518 407.368 406.071 520.347 268 520.347C129.929 520.347 18 407.368 18 268C18 128.632 129.929 15.6526 268 15.6526C406.071 15.6526 518 128.632 518 268ZM142.408 268C142.408 338.014 198.637 394.772 268 394.772C337.363 394.772 393.592 338.014 393.592 268C393.592 197.986 337.363 141.228 268 141.228C198.637 141.228 142.408 197.986 142.408 268Z" fill="black" fill-opacity="0.05"/>
<path d="M517.961 263.544C517.241 222.375 506.551 182.008 486.823 145.967C467.096 109.926 438.931 79.3047 404.786 56.7754C370.64 34.2462 331.552 20.4932 290.931 16.7163C250.31 12.9395 209.39 19.2537 171.742 35.1078L219.585 150.862C238.521 142.888 259.102 139.712 279.534 141.612C299.965 143.511 319.625 150.429 336.799 161.76C353.973 173.092 368.139 188.493 378.062 206.621C387.984 224.749 393.361 245.052 393.723 265.759L517.961 263.544Z" fill="#8C007E"/>
</svg>
