<svg width="537" height="537" viewBox="0 0 537 537" fill="none" xmlns="http://www.w3.org/2000/svg">
<path d="M518 268C518 407.368 406.071 520.347 268 520.347C129.929 520.347 18 407.368 18 268C18 128.632 129.929 15.6526 268 15.6526C406.071 15.6526 518 128.632 518 268ZM142.408 268C142.408 338.014 198.637 394.772 268 394.772C337.363 394.772 393.592 338.014 393.592 268C393.592 197.986 337.363 141.228 268 141.228C198.637 141.228 142.408 197.986 142.408 268Z" fill="black" fill-opacity="0.05"/>
<path d="M517.961 263.544C517.218 221.056 505.856 179.445 484.931 142.571C464.005 105.697 434.193 74.7543 398.259 52.6128C362.325 30.4713 321.434 17.8481 279.378 15.9141C237.322 13.98 195.463 22.7978 157.683 41.5494L212.514 154.102C231.516 144.671 252.57 140.236 273.723 141.208C294.876 142.181 315.443 148.53 333.516 159.667C351.59 170.803 366.585 186.366 377.11 204.913C387.635 223.459 393.349 244.389 393.723 265.759L517.961 263.544Z" fill="#8C007E"/>
</svg>
