<svg width="537" height="537" viewBox="0 0 537 537" fill="none" xmlns="http://www.w3.org/2000/svg">
<path d="M518 268C518 407.368 406.071 520.347 268 520.347C129.929 520.347 18 407.368 18 268C18 128.632 129.929 15.6526 268 15.6526C406.071 15.6526 518 128.632 518 268ZM142.408 268C142.408 338.014 198.637 394.772 268 394.772C337.363 394.772 393.592 338.014 393.592 268C393.592 197.986 337.363 141.228 268 141.228C198.637 141.228 142.408 197.986 142.408 268Z" fill="black" fill-opacity="0.05"/>
<path d="M517.961 263.544C517.195 219.732 505.139 176.876 482.98 139.195C460.822 101.514 429.324 70.3062 391.588 48.644C353.852 26.9818 311.178 15.6117 267.766 15.6527C224.354 15.6937 181.701 27.1445 144.005 48.8779L205.634 157.788C224.594 146.857 246.048 141.097 267.882 141.077C289.717 141.056 311.181 146.775 330.161 157.67C349.141 168.566 364.984 184.262 376.129 203.215C387.274 222.167 393.337 243.723 393.723 265.759L517.961 263.544Z" fill="#8C007E"/>
</svg>
