<svg width="537" height="537" viewBox="0 0 537 537" fill="none" xmlns="http://www.w3.org/2000/svg">
<path d="M518 268C518 407.368 406.071 520.347 268 520.347C129.929 520.347 18 407.368 18 268C18 128.632 129.929 15.6526 268 15.6526C406.071 15.6526 518 128.632 518 268ZM142.408 268C142.408 338.014 198.637 394.772 268 394.772C337.363 394.772 393.592 338.014 393.592 268C393.592 197.986 337.363 141.228 268 141.228C198.637 141.228 142.408 197.986 142.408 268Z" fill="black" fill-opacity="0.05"/>
<path d="M517.961 263.544C517.17 218.345 504.365 174.191 480.885 135.696C457.404 97.2017 424.11 65.7806 384.483 44.7178C344.856 23.6549 300.351 13.7236 255.62 15.9622C210.89 18.2007 167.576 32.5268 130.208 57.4429L198.695 162.096C217.49 149.564 239.275 142.358 261.773 141.232C284.272 140.107 306.656 145.102 326.587 155.696C346.519 166.29 363.265 182.094 375.075 201.455C386.885 220.817 393.325 243.025 393.723 265.759L517.961 263.544Z" fill="#8C007E"/>
</svg>
