<svg width="537" height="537" viewBox="0 0 537 537" fill="none" xmlns="http://www.w3.org/2000/svg">
<path d="M518 268C518 407.368 406.071 520.347 268 520.347C129.929 520.347 18 407.368 18 268C18 128.632 129.929 15.6526 268 15.6526C406.071 15.6526 518 128.632 518 268ZM142.408 268C142.408 338.014 198.637 394.772 268 394.772C337.363 394.772 393.592 338.014 393.592 268C393.592 197.986 337.363 141.228 268 141.228C198.637 141.228 142.408 197.986 142.408 268Z" fill="black" fill-opacity="0.05"/>
<path d="M517.961 263.544C517.147 217.004 503.596 171.599 478.807 132.349C454.018 93.0989 418.957 61.5345 377.501 41.1466C336.046 20.7587 289.812 12.3418 243.912 16.8267C198.012 21.3116 154.236 38.5236 117.424 66.5591L192.265 166.681C210.78 152.58 232.798 143.923 255.884 141.667C278.971 139.412 302.225 143.645 323.076 153.899C343.927 164.154 361.561 180.03 374.03 199.771C386.498 219.513 393.313 242.351 393.723 265.759L517.961 263.544Z" fill="#8C007E"/>
</svg>
