<svg width="537" height="537" viewBox="0 0 537 537" fill="none" xmlns="http://www.w3.org/2000/svg">
<path d="M518 268C518 407.368 406.071 520.347 268 520.347C129.929 520.347 18 407.368 18 268C18 128.632 129.929 15.6526 268 15.6526C406.071 15.6526 518 128.632 518 268ZM142.408 268C142.408 338.014 198.637 394.772 268 394.772C337.363 394.772 393.592 338.014 393.592 268C393.592 197.986 337.363 141.228 268 141.228C198.637 141.228 142.408 197.986 142.408 268Z" fill="black" fill-opacity="0.05"/>
<path d="M517.961 263.544C517.123 215.622 502.781 168.932 476.614 128.937C450.446 88.9421 413.536 57.2963 370.201 37.7024C326.867 18.1085 278.9 11.3769 231.914 18.2953C184.927 25.2138 140.864 45.496 104.881 76.769L185.956 171.816C204.055 156.087 226.217 145.886 249.85 142.406C273.482 138.926 297.608 142.312 319.404 152.167C341.2 162.022 359.765 177.939 372.926 198.056C386.088 218.172 393.301 241.656 393.723 265.759L517.961 263.544Z" fill="#8C007E"/>
</svg>
