<svg width="537" height="537" viewBox="0 0 537 537" fill="none" xmlns="http://www.w3.org/2000/svg">
<path d="M518 268C518 407.368 406.071 520.347 268 520.347C129.929 520.347 18 407.368 18 268C18 128.632 129.929 15.6526 268 15.6526C406.071 15.6526 518 128.632 518 268ZM142.408 268C142.408 338.014 198.637 394.772 268 394.772C337.363 394.772 393.592 338.014 393.592 268C393.592 197.986 337.363 141.228 268 141.228C198.637 141.228 142.408 197.986 142.408 268Z" fill="black" fill-opacity="0.05"/>
<path d="M517.961 263.544C517.099 214.256 501.953 166.301 474.394 125.603C446.836 84.905 408.071 53.2459 362.888 34.5354C317.704 15.825 268.081 10.8826 220.146 20.3187C172.211 29.7549 128.064 53.1562 93.1569 87.6328L180.059 177.281C197.616 159.94 219.821 148.17 243.931 143.424C268.041 138.678 293 141.163 315.726 150.574C338.452 159.985 357.949 175.909 371.81 196.379C385.671 216.848 393.289 240.968 393.723 265.759L517.961 263.544Z" fill="#8C007E"/>
</svg>
