<svg width="537" height="537" viewBox="0 0 537 537" fill="none" xmlns="http://www.w3.org/2000/svg">
<path d="M518 268C518 407.368 406.071 520.347 268 520.347C129.929 520.347 18 407.368 18 268C18 128.632 129.929 15.6526 268 15.6526C406.071 15.6526 518 128.632 518 268ZM142.408 268C142.408 338.014 198.637 394.772 268 394.772C337.363 394.772 393.592 338.014 393.592 268C393.592 197.986 337.363 141.228 268 141.228C198.637 141.228 142.408 197.986 142.408 268Z" fill="black" fill-opacity="0.05"/>
<path d="M517.961 263.544C517.053 211.663 500.323 161.325 470.048 119.388C439.773 77.4508 397.427 45.954 348.777 29.188C300.127 12.422 247.54 11.2019 198.178 25.6941C148.817 40.1862 105.081 69.6859 72.9298 110.175L169.885 188.619C186.057 168.254 208.054 153.416 232.882 146.127C257.709 138.838 284.159 139.452 308.628 147.885C333.098 156.317 354.397 172.159 369.624 193.252C384.851 214.345 393.266 239.664 393.723 265.759L517.961 263.544Z" fill="#8C007E"/>
</svg>
