<svg width="537" height="537" viewBox="0 0 537 537" fill="none" xmlns="http://www.w3.org/2000/svg">
<path d="M518 268C518 407.368 406.071 520.347 268 520.347C129.929 520.347 18 407.368 18 268C18 128.632 129.929 15.6526 268 15.6526C406.071 15.6526 518 128.632 518 268ZM142.408 268C142.408 338.014 198.637 394.772 268 394.772C337.363 394.772 393.592 338.014 393.592 268C393.592 197.986 337.363 141.228 268 141.228C198.637 141.228 142.408 197.986 142.408 268Z" fill="black" fill-opacity="0.05"/>
<path d="M517.961 263.544C517.029 210.243 499.397 158.61 467.595 116.049C435.794 73.4875 391.456 42.1855 340.94 26.6319C290.425 11.0783 236.327 12.0723 186.406 29.4712C136.484 46.8702 93.3043 79.7802 63.0583 123.481L164.92 195.311C180.133 173.331 201.852 156.778 226.961 148.027C252.069 139.276 279.279 138.776 304.687 146.599C330.095 154.422 352.395 170.166 368.391 191.573C384.386 212.98 393.254 238.95 393.723 265.759L517.961 263.544Z" fill="#8C007E"/>
</svg>
