<svg width="537" height="537" viewBox="0 0 537 537" fill="none" xmlns="http://www.w3.org/2000/svg">
<path d="M518 268C518 407.368 406.071 520.347 268 520.347C129.929 520.347 18 407.368 18 268C18 128.632 129.929 15.6526 268 15.6526C406.071 15.6526 518 128.632 518 268ZM142.408 268C142.408 338.014 198.637 394.772 268 394.772C337.363 394.772 393.592 338.014 393.592 268C393.592 197.986 337.363 141.228 268 141.228C198.637 141.228 142.408 197.986 142.408 268Z" fill="black" fill-opacity="0.05"/>
<path d="M517.961 263.544C517.004 208.853 498.468 155.957 465.144 112.822C431.82 69.6873 385.513 38.65 333.197 24.3849C280.882 10.1198 225.391 13.3994 175.082 33.7298C124.773 54.0601 82.371 90.3402 54.2619 137.106L160.496 202.164C174.634 178.642 195.961 160.395 221.265 150.169C246.569 139.943 274.479 138.294 300.792 145.469C327.105 152.644 350.397 168.255 367.158 189.95C383.918 211.646 393.242 238.251 393.723 265.759L517.961 263.544Z" fill="#8C007E"/>
</svg>
