<svg width="537" height="537" viewBox="0 0 537 537" fill="none" xmlns="http://www.w3.org/2000/svg">
<path d="M518 268C518 407.368 406.071 520.347 268 520.347C129.929 520.347 18 407.368 18 268C18 128.632 129.929 15.6526 268 15.6526C406.071 15.6526 518 128.632 518 268ZM142.408 268C142.408 338.014 198.637 394.772 268 394.772C337.363 394.772 393.592 338.014 393.592 268C393.592 197.986 337.363 141.228 268 141.228C198.637 141.228 142.408 197.986 142.408 268Z" fill="black" fill-opacity="0.05"/>
<path d="M517.961 263.544C516.982 207.577 497.595 153.527 462.851 109.899C428.108 66.2714 379.979 35.5422 326.039 22.5471C272.099 9.55195 215.409 15.0286 164.89 38.1151C114.372 61.2017 72.8913 100.588 46.9765 150.076L156.832 208.688C169.866 183.797 190.729 163.987 216.139 152.375C241.548 140.763 270.062 138.008 297.192 144.544C324.322 151.081 348.529 166.537 366.004 188.48C383.48 210.424 393.23 237.609 393.723 265.759L517.961 263.544Z" fill="#8C007E"/>
</svg>
