<svg width="537" height="537" viewBox="0 0 537 537" fill="none" xmlns="http://www.w3.org/2000/svg">
<path d="M518 268C518 407.368 406.071 520.347 268 520.347C129.929 520.347 18 407.368 18 268C18 128.632 129.929 15.6526 268 15.6526C406.071 15.6526 518 128.632 518 268ZM142.408 268C142.408 338.014 198.637 394.772 268 394.772C337.363 394.772 393.592 338.014 393.592 268C393.592 197.986 337.363 141.228 268 141.228C198.637 141.228 142.408 197.986 142.408 268Z" fill="black" fill-opacity="0.05"/>
<path d="M517.961 263.544C516.957 206.139 496.589 150.796 460.22 106.651C423.851 62.5062 373.656 32.1997 317.922 20.7349C262.187 9.27005 204.245 17.3324 153.663 43.5907C103.08 69.8491 62.8802 112.734 39.7006 165.164L153.172 216.277C164.831 189.906 185.05 168.336 210.492 155.129C235.933 141.922 265.076 137.867 293.109 143.633C321.142 149.399 346.389 164.643 364.681 186.846C382.973 209.05 393.218 236.886 393.723 265.759L517.961 263.544Z" fill="#8C007E"/>
</svg>
