<svg width="537" height="537" viewBox="0 0 537 537" fill="none" xmlns="http://www.w3.org/2000/svg">
<path d="M518 268C518 407.368 406.071 520.347 268 520.347C129.929 520.347 18 407.368 18 268C18 128.632 129.929 15.6526 268 15.6526C406.071 15.6526 518 128.632 518 268ZM142.408 268C142.408 338.014 198.637 394.772 268 394.772C337.363 394.772 393.592 338.014 393.592 268C393.592 197.986 337.363 141.228 268 141.228C198.637 141.228 142.408 197.986 142.408 268Z" fill="black" fill-opacity="0.05"/>
<path d="M517.961 263.544C516.934 204.841 495.66 148.336 457.803 103.761C419.946 59.186 367.875 29.3304 310.557 19.3358C253.24 9.34114 194.264 19.8332 143.785 49.005C93.3068 78.1768 54.4854 124.202 34.0067 179.156L150.308 223.314C160.609 195.674 180.135 172.525 205.524 157.852C230.913 143.179 260.576 137.902 289.405 142.929C318.234 147.956 344.424 162.973 363.465 185.393C382.506 207.813 393.206 236.233 393.723 265.759L517.961 263.544Z" fill="#8C007E"/>
</svg>
