<svg width="537" height="537" viewBox="0 0 537 537" fill="none" xmlns="http://www.w3.org/2000/svg">
<path d="M518 268C518 407.368 406.071 520.347 268 520.347C129.929 520.347 18 407.368 18 268C18 128.632 129.929 15.6526 268 15.6526C406.071 15.6526 518 128.632 518 268ZM142.408 268C142.408 338.014 198.637 394.772 268 394.772C337.363 394.772 393.592 338.014 393.592 268C393.592 197.986 337.363 141.228 268 141.228C198.637 141.228 142.408 197.986 142.408 268Z" fill="black" fill-opacity="0.05"/>
<path d="M517.961 263.544C516.911 203.502 494.682 145.807 455.269 100.824C415.856 55.8408 361.842 26.5196 302.934 18.1284C244.025 9.73714 184.082 22.8261 133.876 55.0434C83.6699 87.2607 46.4918 136.494 29.0218 193.898L147.801 230.729C156.588 201.857 175.287 177.093 200.54 160.889C225.792 144.685 255.941 138.101 285.571 142.322C315.2 146.543 342.367 161.29 362.191 183.915C382.014 206.54 393.195 235.56 393.723 265.759L517.961 263.544Z" fill="#8C007E"/>
</svg>
