<svg width="537" height="537" viewBox="0 0 537 537" fill="none" xmlns="http://www.w3.org/2000/svg">
<path d="M518 268C518 407.368 406.071 520.347 268 520.347C129.929 520.347 18 407.368 18 268C18 128.632 129.929 15.6526 268 15.6526C406.071 15.6526 518 128.632 518 268ZM142.408 268C142.408 338.014 198.637 394.772 268 394.772C337.363 394.772 393.592 338.014 393.592 268C393.592 197.986 337.363 141.228 268 141.228C198.637 141.228 142.408 197.986 142.408 268Z" fill="black" fill-opacity="0.05"/>
<path d="M517.961 263.544C516.886 202.112 493.643 143.185 452.592 97.8178C411.541 52.4506 355.502 23.7598 294.987 17.1272C234.472 10.4946 173.638 26.3758 123.897 61.7919C74.1559 97.208 38.9247 149.726 24.812 209.494L145.684 238.573C152.782 208.512 170.502 182.097 195.521 164.283C220.539 146.47 251.136 138.482 281.574 141.818C312.011 145.154 340.197 159.585 360.844 182.403C381.492 205.222 393.182 234.86 393.723 265.759L517.961 263.544Z" fill="#8C007E"/>
</svg>
