<svg width="537" height="537" viewBox="0 0 537 537" fill="none" xmlns="http://www.w3.org/2000/svg">
<path d="M518 268C518 407.368 406.071 520.347 268 520.347C129.929 520.347 18 407.368 18 268C18 128.632 129.929 15.6526 268 15.6526C406.071 15.6526 518 128.632 518 268ZM142.408 268C142.408 338.014 198.637 394.772 268 394.772C337.363 394.772 393.592 338.014 393.592 268C393.592 197.986 337.363 141.228 268 141.228C198.637 141.228 142.408 197.986 142.408 268Z" fill="black" fill-opacity="0.05"/>
<path d="M517.961 263.544C516.863 200.789 492.635 140.698 450.007 95.0034C407.378 49.3084 349.409 21.289 287.415 16.4147C225.421 11.5404 163.852 30.161 114.728 68.6418C65.6036 107.123 32.4495 162.701 21.7375 224.528L144.137 246.135C149.525 215.038 166.201 187.083 190.909 167.729C215.617 148.374 246.584 139.008 277.765 141.46C308.946 143.912 338.103 158.005 359.544 180.988C380.985 203.971 393.171 234.195 393.723 265.759L517.961 263.544Z" fill="#8C007E"/>
</svg>
