<svg width="537" height="537" viewBox="0 0 537 537" fill="none" xmlns="http://www.w3.org/2000/svg">
<path d="M518 268C518 407.368 406.071 520.347 268 520.347C129.929 520.347 18 407.368 18 268C18 128.632 129.929 15.6526 268 15.6526C406.071 15.6526 518 128.632 518 268ZM142.408 268C142.408 338.014 198.637 394.772 268 394.772C337.363 394.772 393.592 338.014 393.592 268C393.592 197.986 337.363 141.228 268 141.228C198.637 141.228 142.408 197.986 142.408 268Z" fill="black" fill-opacity="0.05"/>
<path d="M517.961 263.544C516.839 199.393 491.549 138.082 447.237 92.0814C402.924 46.081 342.916 18.8461 279.417 15.9159C215.919 12.9857 153.699 34.5804 105.413 76.3077C57.1269 118.035 26.4009 176.761 19.4844 240.542L143.004 254.189C146.483 222.11 161.937 192.572 186.224 171.584C210.51 150.597 241.805 139.735 273.742 141.209C305.68 142.683 335.863 156.381 358.151 179.518C380.439 202.655 393.158 233.493 393.723 265.759L517.961 263.544Z" fill="#8C007E"/>
</svg>
