<svg width="537" height="537" viewBox="0 0 537 537" fill="none" xmlns="http://www.w3.org/2000/svg">
<path d="M518 268C518 407.368 406.071 520.347 268 520.347C129.929 520.347 18 407.368 18 268C18 128.632 129.929 15.6526 268 15.6526C406.071 15.6526 518 128.632 518 268ZM142.408 268C142.408 338.014 198.637 394.772 268 394.772C337.363 394.772 393.592 338.014 393.592 268C393.592 197.986 337.363 141.228 268 141.228C198.637 141.228 142.408 197.986 142.408 268Z" fill="black" fill-opacity="0.05"/>
<path d="M517.961 263.544C516.814 198.003 490.446 135.484 444.437 89.2209C398.428 42.958 336.389 16.5822 271.454 15.6767C206.518 14.7711 143.781 39.4068 96.5237 84.3691C49.266 129.331 21.1964 191.091 18.2563 256.576L142.386 262.254C143.865 229.317 157.983 198.254 181.753 175.639C205.522 153.024 237.076 140.633 269.737 141.089C302.398 141.544 333.601 154.811 356.742 178.079C379.884 201.348 393.146 232.794 393.723 265.759L517.961 263.544Z" fill="#8C007E"/>
</svg>
