<svg width="537" height="537" viewBox="0 0 537 537" fill="none" xmlns="http://www.w3.org/2000/svg">
<path d="M518 268C518 407.368 406.071 520.347 268 520.347C129.929 520.347 18 407.368 18 268C18 128.632 129.929 15.6526 268 15.6526C406.071 15.6526 518 128.632 518 268ZM142.408 268C142.408 338.014 198.637 394.772 268 394.772C337.363 394.772 393.592 338.014 393.592 268C393.592 197.986 337.363 141.228 268 141.228C198.637 141.228 142.408 197.986 142.408 268Z" fill="black" fill-opacity="0.05"/>
<path d="M517.961 263.544C517.37 229.745 510.057 196.411 496.456 165.519C482.855 134.628 463.245 106.81 438.788 83.7164C414.331 60.6229 385.526 42.7248 354.084 31.0847C322.642 19.4445 289.204 14.2997 255.754 15.9555C222.305 17.6113 189.525 26.0341 159.363 40.7238C129.2 55.4134 102.269 76.0705 80.1679 101.469C58.0669 126.867 41.2468 156.488 30.706 188.575C20.1652 220.661 16.1186 254.558 18.8065 288.253L142.663 278.187C141.311 261.239 143.346 244.19 148.648 228.051C153.95 211.913 162.41 197.014 173.526 184.24C184.642 171.465 198.188 161.075 213.359 153.687C228.53 146.298 245.017 142.062 261.841 141.229C278.665 140.396 295.484 142.984 311.298 148.839C327.112 154.693 341.6 163.695 353.901 175.311C366.202 186.926 376.066 200.918 382.907 216.455C389.747 231.993 393.426 248.759 393.723 265.759L517.961 263.544Z" fill="#8C007E"/>
</svg>
