<svg width="537" height="537" viewBox="0 0 537 537" fill="none" xmlns="http://www.w3.org/2000/svg">
<path d="M518 268C518 407.368 406.071 520.347 268 520.347C129.929 520.347 18 407.368 18 268C18 128.632 129.929 15.6526 268 15.6526C406.071 15.6526 518 128.632 518 268ZM142.408 268C142.408 338.014 198.637 394.772 268 394.772C337.363 394.772 393.592 338.014 393.592 268C393.592 197.986 337.363 141.228 268 141.228C198.637 141.228 142.408 197.986 142.408 268Z" fill="black" fill-opacity="0.05"/>
<path d="M517.961 263.544C517.358 229.088 509.77 195.121 495.663 163.737C481.557 132.354 461.232 104.22 435.941 81.0697C410.65 57.9193 380.929 40.2431 348.611 29.1309C316.293 18.0188 282.063 13.7061 248.03 16.459C213.998 19.2118 180.884 28.9717 150.732 45.1369C120.579 61.3022 94.0267 83.5302 72.7109 110.451C51.3951 137.371 35.7679 168.413 26.7928 201.663C17.8177 234.913 15.6849 269.667 20.5259 303.781L143.528 285.997C141.093 268.838 142.166 251.358 146.68 234.635C151.194 217.911 159.054 202.297 169.775 188.757C180.497 175.217 193.852 164.037 209.018 155.907C224.183 147.776 240.838 142.867 257.956 141.482C275.073 140.098 292.29 142.267 308.545 147.856C324.8 153.445 339.749 162.336 352.469 173.98C365.19 185.624 375.413 199.774 382.508 215.559C389.603 231.344 393.42 248.428 393.723 265.759L517.961 263.544Z" fill="#8C007E"/>
</svg>
