<svg width="537" height="537" viewBox="0 0 537 537" fill="none" xmlns="http://www.w3.org/2000/svg">
<path d="M518 268C518 407.368 406.071 520.347 268 520.347C129.929 520.347 18 407.368 18 268C18 128.632 129.929 15.6526 268 15.6526C406.071 15.6526 518 128.632 518 268ZM142.408 268C142.408 338.014 198.637 394.772 268 394.772C337.363 394.772 393.592 338.014 393.592 268C393.592 197.986 337.363 141.228 268 141.228C198.637 141.228 142.408 197.986 142.408 268Z" fill="black" fill-opacity="0.05"/>
<path d="M517.961 263.544C517.347 228.429 509.477 193.829 494.856 161.959C480.235 130.09 459.184 101.652 433.05 78.4647C406.917 55.2777 376.276 37.8524 343.088 27.3038C309.9 16.7551 274.896 13.3154 240.315 17.2046C205.735 21.0939 172.34 32.2265 142.266 49.8901C112.192 67.5538 86.1028 91.3596 65.6664 119.784C45.2299 148.209 30.8968 180.627 23.5839 214.963C16.2711 249.3 16.1396 284.799 23.1979 319.19L144.872 293.747C141.322 276.45 141.388 258.594 145.066 241.324C148.744 224.054 155.953 207.749 166.232 193.452C176.511 179.155 189.633 167.182 204.76 158.297C219.886 149.413 236.683 143.814 254.075 141.857C271.468 139.901 289.074 141.631 305.767 146.937C322.459 152.243 337.871 161.007 351.015 172.669C364.16 184.332 374.748 198.635 382.102 214.665C389.456 230.694 393.414 248.097 393.723 265.759L517.961 263.544Z" fill="#8C007E"/>
</svg>
