<svg width="537" height="537" viewBox="0 0 537 537" fill="none" xmlns="http://www.w3.org/2000/svg">
<path d="M518 268C518 407.368 406.071 520.347 268 520.347C129.929 520.347 18 407.368 18 268C18 128.632 129.929 15.6526 268 15.6526C406.071 15.6526 518 128.632 518 268ZM142.408 268C142.408 338.014 198.637 394.772 268 394.772C337.363 394.772 393.592 338.014 393.592 268C393.592 197.986 337.363 141.228 268 141.228C198.637 141.228 142.408 197.986 142.408 268Z" fill="black" fill-opacity="0.05"/>
<path d="M517.961 263.544C517.335 227.735 509.163 192.47 493.991 160.094C478.819 127.718 456.992 98.9736 429.963 75.7706C402.934 52.5675 371.322 35.4379 337.227 25.5203C303.133 15.6028 267.337 13.1245 232.22 18.2504C197.103 23.3762 163.47 35.9887 133.555 55.2494C103.641 74.5101 78.1309 99.9777 58.7212 129.959C39.3116 159.941 26.4469 193.749 20.9825 229.137C15.5181 264.525 17.579 300.682 27.0284 335.204L146.798 301.801C142.046 284.438 141.009 266.252 143.758 248.453C146.506 230.654 152.977 213.649 162.739 198.57C172.501 183.49 185.332 170.68 200.378 160.993C215.424 151.305 232.341 144.962 250.004 142.383C267.667 139.805 285.671 141.052 302.819 146.04C319.968 151.028 335.868 159.644 349.463 171.314C363.058 182.985 374.035 197.443 381.667 213.727C389.298 230.011 393.408 247.748 393.723 265.759L517.961 263.544Z" fill="#8C007E"/>
</svg>
