<svg width="537" height="537" viewBox="0 0 537 537" fill="none" xmlns="http://www.w3.org/2000/svg">
<path d="M518 268C518 407.368 406.071 520.347 268 520.347C129.929 520.347 18 407.368 18 268C18 128.632 129.929 15.6526 268 15.6526C406.071 15.6526 518 128.632 518 268ZM142.408 268C142.408 338.014 198.637 394.772 268 394.772C337.363 394.772 393.592 338.014 393.592 268C393.592 197.986 337.363 141.228 268 141.228C198.637 141.228 142.408 197.986 142.408 268Z" fill="black" fill-opacity="0.05"/>
<path d="M517.961 263.544C517.323 227.061 508.854 191.152 493.138 158.292C477.422 125.432 454.833 96.4029 426.928 73.2066C399.024 50.0102 366.467 33.1981 331.503 23.9294C296.54 14.6608 260.001 13.156 224.405 19.5189C188.81 25.8818 155.005 39.961 125.321 60.7858C95.6368 81.6106 70.7801 108.686 52.4644 140.144C34.1488 171.603 22.8098 206.696 19.2293 243.006C15.6488 279.315 19.912 315.976 31.7248 350.462L149.161 309.476C143.219 292.131 141.075 273.691 142.876 255.429C144.677 237.166 150.38 219.515 159.592 203.692C168.804 187.87 181.306 174.252 196.237 163.777C211.167 153.303 228.17 146.222 246.073 143.021C263.977 139.821 282.355 140.578 299.94 145.24C317.526 149.902 333.901 158.358 347.936 170.025C361.971 181.692 373.333 196.292 381.238 212.82C389.142 229.348 393.402 247.409 393.723 265.759L517.961 263.544Z" fill="#8C007E"/>
</svg>
