<svg width="537" height="537" viewBox="0 0 537 537" fill="none" xmlns="http://www.w3.org/2000/svg">
<path d="M518 268C518 407.368 406.071 520.347 268 520.347C129.929 520.347 18 407.368 18 268C18 128.632 129.929 15.6526 268 15.6526C406.071 15.6526 518 128.632 518 268ZM142.408 268C142.408 338.014 198.637 394.772 268 394.772C337.363 394.772 393.592 338.014 393.592 268C393.592 197.986 337.363 141.228 268 141.228C198.637 141.228 142.408 197.986 142.408 268Z" fill="black" fill-opacity="0.05"/>
<path d="M517.961 263.544C517.311 226.396 508.542 189.851 492.281 156.519C476.02 123.187 452.668 93.8905 423.892 70.7224C395.116 47.5542 361.627 31.0859 325.816 22.4934C290.005 13.901 252.757 13.3966 216.73 21.0161C180.704 28.6357 146.789 44.1912 117.408 66.5717C88.0266 88.9523 63.9038 117.606 46.7626 150.485C29.6213 183.365 19.8844 219.659 18.2474 256.777C16.6103 293.894 23.1135 330.919 37.2924 365.206L151.961 316.892C144.829 299.646 141.558 281.024 142.382 262.355C143.205 243.686 148.103 225.431 156.724 208.894C165.346 192.356 177.479 177.944 192.257 166.688C207.035 155.431 224.093 147.607 242.213 143.774C260.333 139.942 279.068 140.196 297.08 144.518C315.091 148.839 331.936 157.122 346.409 168.775C360.882 180.428 372.628 195.163 380.807 211.928C388.986 228.693 393.396 247.074 393.723 265.759L517.961 263.544Z" fill="#8C007E"/>
</svg>
