<svg width="537" height="537" viewBox="0 0 537 537" fill="none" xmlns="http://www.w3.org/2000/svg">
<path d="M518 268C518 407.368 406.071 520.347 268 520.347C129.929 520.347 18 407.368 18 268C18 128.632 129.929 15.6526 268 15.6526C406.071 15.6526 518 128.632 518 268ZM142.408 268C142.408 338.014 198.637 394.772 268 394.772C337.363 394.772 393.592 338.014 393.592 268C393.592 197.986 337.363 141.228 268 141.228C198.637 141.228 142.408 197.986 142.408 268Z" fill="black" fill-opacity="0.05"/>
<path d="M517.961 263.544C517.299 225.717 508.219 188.523 491.393 154.716C474.566 120.909 450.424 91.3532 420.753 68.2364C391.082 45.1195 356.64 29.0329 319.977 21.1669C283.315 13.3009 245.369 13.8568 208.948 22.7935C172.527 31.7301 138.562 48.8188 109.568 72.7952C80.5737 96.7715 57.2916 127.022 41.4443 161.307C25.5969 195.593 17.5901 233.037 18.0162 270.868C18.4422 308.7 27.2903 345.95 43.9057 379.864L155.287 324.264C146.93 307.207 142.48 288.471 142.266 269.443C142.051 250.415 146.078 231.582 154.049 214.337C162.02 197.092 173.73 181.877 188.313 169.818C202.897 157.758 219.98 149.163 238.298 144.668C256.617 140.174 275.703 139.894 294.143 143.85C312.583 147.807 329.906 155.898 344.83 167.525C359.754 179.152 371.897 194.017 380.36 211.021C388.823 228.025 393.39 246.733 393.723 265.759L517.961 263.544Z" fill="#8C007E"/>
</svg>
