<svg width="537" height="537" viewBox="0 0 537 537" fill="none" xmlns="http://www.w3.org/2000/svg">
<path d="M518 268C518 407.368 406.071 520.347 268 520.347C129.929 520.347 18 407.368 18 268C18 128.632 129.929 15.6526 268 15.6526C406.071 15.6526 518 128.632 518 268ZM142.408 268C142.408 338.014 198.637 394.772 268 394.772C337.363 394.772 393.592 338.014 393.592 268C393.592 197.986 337.363 141.228 268 141.228C198.637 141.228 142.408 197.986 142.408 268Z" fill="black" fill-opacity="0.05"/>
<path d="M517.961 263.544C517.288 225.067 507.905 187.256 490.531 153.001C473.157 118.747 448.252 88.9567 417.72 65.9101C387.188 42.8635 351.838 27.1708 314.375 20.0322C276.912 12.8937 238.327 14.4984 201.573 24.7236C164.818 34.9489 130.868 53.5238 102.317 79.0276C73.7673 104.531 51.3741 136.288 36.8506 171.87C22.3271 207.451 16.0581 245.913 18.5231 284.316C20.9881 322.718 32.1218 360.043 51.0727 393.435L158.892 331.09C149.36 314.295 143.76 295.522 142.521 276.206C141.281 256.891 144.434 237.546 151.739 219.649C159.044 201.753 170.307 185.78 184.667 172.952C199.026 160.125 216.103 150.782 234.589 145.639C253.075 140.496 272.482 139.689 291.325 143.28C310.168 146.87 327.948 154.763 343.304 166.355C358.661 177.947 371.188 192.93 379.927 210.159C388.665 227.388 393.384 246.406 393.723 265.759L517.961 263.544Z" fill="#8C007E"/>
</svg>
