<svg width="537" height="537" viewBox="0 0 537 537" fill="none" xmlns="http://www.w3.org/2000/svg">
<path d="M518 268C518 407.368 406.071 520.347 268 520.347C129.929 520.347 18 407.368 18 268C18 128.632 129.929 15.6526 268 15.6526C406.071 15.6526 518 128.632 518 268ZM142.408 268C142.408 338.014 198.637 394.772 268 394.772C337.363 394.772 393.592 338.014 393.592 268C393.592 197.986 337.363 141.228 268 141.228C198.637 141.228 142.408 197.986 142.408 268Z" fill="black" fill-opacity="0.05"/>
<path d="M517.961 263.544C517.276 224.395 507.575 185.944 489.625 151.232C471.676 116.521 445.97 86.5021 414.542 63.5505C383.113 40.5989 346.825 25.3444 308.548 18.9938C270.27 12.6432 231.053 15.3707 194.001 26.9606C156.948 38.5505 123.075 58.6848 95.0625 85.7706C67.05 112.856 45.6661 146.15 32.6026 183.019C19.5392 219.887 15.1546 259.318 19.7958 298.192C24.437 337.066 37.9766 374.317 59.3434 406.997L163.052 337.911C152.305 321.474 145.495 302.738 143.161 283.186C140.826 263.633 143.032 243.801 149.602 225.257C156.173 206.713 166.928 189.967 181.018 176.344C195.107 162.721 212.144 152.594 230.78 146.764C249.417 140.935 269.142 139.563 288.394 142.757C307.647 145.951 325.899 153.624 341.706 165.168C357.514 176.712 370.443 191.811 379.471 209.269C388.499 226.728 393.378 246.068 393.723 265.759L517.961 263.544Z" fill="#8C007E"/>
</svg>
