<svg width="537" height="537" viewBox="0 0 537 537" fill="none" xmlns="http://www.w3.org/2000/svg">
<path d="M518 268C518 407.368 406.071 520.347 268 520.347C129.929 520.347 18 407.368 18 268C18 128.632 129.929 15.6526 268 15.6526C406.071 15.6526 518 128.632 518 268ZM142.408 268C142.408 338.014 198.637 394.772 268 394.772C337.363 394.772 393.592 338.014 393.592 268C393.592 197.986 337.363 141.228 268 141.228C198.637 141.228 142.408 197.986 142.408 268Z" fill="black" fill-opacity="0.05"/>
<path d="M517.961 263.544C517.265 223.752 507.254 184.69 488.746 149.548C470.238 114.406 443.758 84.1813 411.469 61.3418C379.179 38.5023 341.995 23.6957 302.954 18.1312C263.912 12.5668 224.121 16.4022 186.828 29.3243C149.536 42.2465 115.8 63.8888 88.3765 92.484C60.9526 121.079 40.6182 155.816 29.0338 193.859C17.4494 231.901 14.9436 272.17 21.721 311.376C28.4983 350.582 44.3667 387.615 68.0302 419.449L167.421 344.174C155.519 328.163 147.538 309.537 144.129 289.817C140.72 270.097 141.981 249.843 147.807 230.709C153.634 211.575 163.861 194.103 177.655 179.721C191.448 165.338 208.416 154.453 227.173 147.953C245.93 141.454 265.944 139.525 285.581 142.323C305.217 145.122 323.92 152.569 340.16 164.057C356.401 175.545 369.72 190.747 379.029 208.422C388.338 226.097 393.373 245.744 393.723 265.759L517.961 263.544Z" fill="#8C007E"/>
</svg>
