<svg width="537" height="537" viewBox="0 0 537 537" fill="none" xmlns="http://www.w3.org/2000/svg">
<path d="M518 268C518 407.368 406.071 520.347 268 520.347C129.929 520.347 18 407.368 18 268C18 128.632 129.929 15.6526 268 15.6526C406.071 15.6526 518 128.632 518 268ZM142.408 268C142.408 338.014 198.637 394.772 268 394.772C337.363 394.772 393.592 338.014 393.592 268C393.592 197.986 337.363 141.228 268 141.228C198.637 141.228 142.408 197.986 142.408 268Z" fill="black" fill-opacity="0.05"/>
<path d="M517.961 263.544C517.253 223.078 506.912 183.376 487.812 147.79C468.711 112.204 441.411 81.7781 408.214 59.0784C375.018 36.3788 336.899 22.0719 297.075 17.3649C257.25 12.658 216.888 17.6891 179.394 32.0337C141.901 46.3783 108.375 69.6155 81.6465 99.7848C54.918 129.954 35.7708 166.17 25.8203 205.377C15.8699 244.584 15.4082 285.632 24.4743 325.057C33.5403 364.482 51.8681 401.127 77.9111 431.901L172.391 350.438C159.292 334.959 150.074 316.528 145.514 296.698C140.954 276.868 141.186 256.223 146.191 236.503C151.196 216.783 160.826 198.567 174.27 183.393C187.713 168.219 204.576 156.531 223.434 149.316C242.292 142.101 262.593 139.571 282.624 141.938C302.654 144.305 321.827 151.501 338.524 162.919C355.22 174.336 368.952 189.639 378.559 207.538C388.166 225.437 393.367 245.405 393.723 265.759L517.961 263.544Z" fill="#8C007E"/>
</svg>
