<svg width="537" height="537" viewBox="0 0 537 537" fill="none" xmlns="http://www.w3.org/2000/svg">
<path d="M518 268C518 407.368 406.071 520.347 268 520.347C129.929 520.347 18 407.368 18 268C18 128.632 129.929 15.6526 268 15.6526C406.071 15.6526 518 128.632 518 268ZM142.408 268C142.408 338.014 198.637 394.772 268 394.772C337.363 394.772 393.592 338.014 393.592 268C393.592 197.986 337.363 141.228 268 141.228C198.637 141.228 142.408 197.986 142.408 268Z" fill="black" fill-opacity="0.05"/>
<path d="M517.961 263.544C517.241 222.399 506.563 182.056 486.858 146.03C467.153 110.005 439.018 79.3901 404.906 56.8545C370.793 34.3189 331.738 20.5461 291.145 16.7363C250.551 12.9266 209.65 19.1955 172.006 34.9968C134.362 50.798 101.118 75.6522 75.1708 107.393C49.2233 139.134 31.36 176.799 23.1375 217.105C14.9149 257.411 16.5827 299.135 27.9955 338.642C39.4083 378.148 60.2198 414.238 88.6162 443.766L177.775 356.405C163.493 341.553 153.025 323.401 147.285 303.531C141.545 283.66 140.706 262.674 144.841 242.401C148.977 222.129 157.962 203.184 171.013 187.22C184.063 171.255 200.784 158.754 219.718 150.806C238.652 142.859 259.224 139.706 279.641 141.622C300.058 143.538 319.702 150.465 336.859 161.8C354.017 173.135 368.168 188.533 378.079 206.653C387.99 224.773 393.361 245.064 393.723 265.759L517.961 263.544Z" fill="#8C007E"/>
</svg>
