<svg width="537" height="537" viewBox="0 0 537 537" fill="none" xmlns="http://www.w3.org/2000/svg">
<path d="M518 268C518 407.368 406.071 520.347 268 520.347C129.929 520.347 18 407.368 18 268C18 128.632 129.929 15.6526 268 15.6526C406.071 15.6526 518 128.632 518 268ZM142.408 268C142.408 338.014 198.637 394.772 268 394.772C337.363 394.772 393.592 338.014 393.592 268C393.592 197.986 337.363 141.228 268 141.228C198.637 141.228 142.408 197.986 142.408 268Z" fill="black" fill-opacity="0.05"/>
<path d="M517.961 263.544C517.229 221.704 506.2 180.705 485.867 144.236C465.535 107.768 436.536 76.9765 401.483 54.6332C366.429 32.29 326.421 19.0966 285.061 16.2409C243.7 13.3851 202.285 20.9567 164.544 38.2739C126.803 55.5912 93.9205 82.1104 68.8576 115.444C43.7946 148.778 27.3376 187.88 20.9682 229.23C14.5988 270.58 18.5168 312.879 32.3696 352.321C46.2225 391.762 69.5752 427.107 100.325 455.174L183.665 362.143C168.198 348.026 156.453 330.249 149.485 310.411C142.517 290.573 140.547 269.298 143.75 248.5C146.954 227.702 155.231 208.035 167.837 191.269C180.443 174.503 196.982 161.165 215.965 152.455C234.947 143.745 255.778 139.936 276.581 141.373C297.384 142.809 317.507 149.445 335.138 160.683C352.769 171.921 367.354 187.408 377.581 205.751C387.808 224.093 393.355 244.715 393.723 265.759L517.961 263.544Z" fill="#8C007E"/>
</svg>
