<svg width="537" height="537" viewBox="0 0 537 537" fill="none" xmlns="http://www.w3.org/2000/svg">
<path d="M518 268C518 407.368 406.071 520.347 268 520.347C129.929 520.347 18 407.368 18 268C18 128.632 129.929 15.6526 268 15.6526C406.071 15.6526 518 128.632 518 268ZM142.408 268C142.408 338.014 198.637 394.772 268 394.772C337.363 394.772 393.592 338.014 393.592 268C393.592 197.986 337.363 141.228 268 141.228C198.637 141.228 142.408 197.986 142.408 268Z" fill="black" fill-opacity="0.05"/>
<path d="M517.961 263.544C517.217 221.013 505.834 179.363 484.869 142.462C463.904 105.562 434.038 74.6099 398.047 52.4823C362.056 30.3548 321.107 17.7699 279.006 15.8972C236.905 14.0246 195.018 22.9249 157.238 41.771C119.458 60.6172 87.0107 88.7976 62.9116 123.693C38.8125 158.589 23.8437 199.068 19.3962 241.368C14.9486 283.668 21.1668 326.416 37.4727 365.641C53.7786 404.865 79.6432 439.292 112.663 465.723L189.87 367.449C173.262 354.155 160.253 336.839 152.052 317.11C143.85 297.382 140.723 275.881 142.96 254.605C145.197 233.329 152.726 212.97 164.847 195.418C176.968 177.867 193.288 163.693 212.29 154.214C231.292 144.735 252.36 140.258 273.536 141.2C294.711 142.142 315.307 148.472 333.41 159.601C351.512 170.731 366.534 186.299 377.079 204.858C387.623 223.418 393.349 244.367 393.723 265.759L517.961 263.544Z" fill="#8C007E"/>
</svg>
