<svg width="537" height="537" viewBox="0 0 537 537" fill="none" xmlns="http://www.w3.org/2000/svg">
<path d="M518 268C518 407.368 406.071 520.347 268 520.347C129.929 520.347 18 407.368 18 268C18 128.632 129.929 15.6526 268 15.6526C406.071 15.6526 518 128.632 518 268ZM142.408 268C142.408 338.014 198.637 394.772 268 394.772C337.363 394.772 393.592 338.014 393.592 268C393.592 197.986 337.363 141.228 268 141.228C198.637 141.228 142.408 197.986 142.408 268Z" fill="black" fill-opacity="0.05"/>
<path d="M517.961 263.544C517.206 220.386 505.496 178.144 483.95 140.858C462.404 103.572 431.742 72.4878 394.897 50.5776C358.052 28.6674 316.255 16.6635 273.501 15.7137C230.748 14.7638 188.468 24.8998 150.703 45.1524C112.938 65.405 80.9519 95.0973 57.8015 131.39C34.6511 167.684 21.1109 209.364 18.4753 252.447C15.8397 295.531 24.1968 338.576 42.7478 377.468C61.2987 416.361 89.4233 449.8 124.433 474.588L195.79 371.908C178.181 359.44 164.035 342.621 154.705 323.059C145.374 303.498 141.171 281.847 142.496 260.178C143.822 238.508 150.632 217.544 162.276 199.289C173.92 181.035 190.009 166.101 209.003 155.914C227.998 145.728 249.263 140.63 270.767 141.107C292.271 141.585 313.293 147.623 331.826 158.643C350.358 169.663 365.779 185.298 376.616 204.051C387.453 222.805 393.343 244.051 393.723 265.759L517.961 263.544Z" fill="#8C007E"/>
</svg>
