<svg width="537" height="537" viewBox="0 0 537 537" fill="none" xmlns="http://www.w3.org/2000/svg">
<path d="M518 268C518 407.368 406.071 520.347 268 520.347C129.929 520.347 18 407.368 18 268C18 128.632 129.929 15.6526 268 15.6526C406.071 15.6526 518 128.632 518 268ZM142.408 268C142.408 338.014 198.637 394.772 268 394.772C337.363 394.772 393.592 338.014 393.592 268C393.592 197.986 337.363 141.228 268 141.228C198.637 141.228 142.408 197.986 142.408 268Z" fill="black" fill-opacity="0.05"/>
<path d="M517.961 263.544C517.194 219.724 505.134 176.86 482.968 139.174C460.801 101.488 429.293 70.2787 391.546 48.6198C353.798 26.9609 311.113 15.599 267.693 15.6528C224.273 15.7065 181.616 27.1742 143.921 48.9264C106.227 70.6787 74.7945 101.966 52.7198 139.707C30.6451 177.447 18.689 220.341 18.0289 264.163C17.3688 307.986 28.0273 351.227 48.955 389.627C69.8827 428.028 100.358 460.265 137.38 483.164L202.302 376.221C183.681 364.704 168.353 348.489 157.827 329.175C147.301 309.86 141.94 288.112 142.272 266.07C142.604 244.029 148.618 222.455 159.72 203.472C170.823 184.49 186.633 168.753 205.592 157.813C224.551 146.872 246.007 141.104 267.846 141.077C289.685 141.05 311.154 146.765 330.14 157.658C349.126 168.552 364.973 184.249 376.122 203.204C387.271 222.159 393.337 243.718 393.723 265.759L517.961 263.544Z" fill="#8C007E"/>
</svg>
