<svg width="537" height="537" viewBox="0 0 537 537" fill="none" xmlns="http://www.w3.org/2000/svg">
<path d="M518 268C518 407.368 406.071 520.347 268 520.347C129.929 520.347 18 407.368 18 268C18 128.632 129.929 15.6526 268 15.6526C406.071 15.6526 518 128.632 518 268ZM142.408 268C142.408 338.014 198.637 394.772 268 394.772C337.363 394.772 393.592 338.014 393.592 268C393.592 197.986 337.363 141.228 268 141.228C198.637 141.228 142.408 197.986 142.408 268Z" fill="black" fill-opacity="0.05"/>
<path d="M517.961 263.544C517.183 219.062 504.768 175.577 481.974 137.499C459.18 99.4206 426.818 68.1017 388.168 46.7167C349.519 25.3317 305.954 14.6409 261.892 15.7279C217.829 16.8149 174.835 29.641 137.266 52.9063C99.6969 76.1715 68.8894 109.049 47.9658 148.206C27.0422 187.363 16.7463 231.407 18.1218 275.875C19.4972 320.343 32.4951 363.653 55.798 401.416C79.1009 439.18 111.88 470.053 150.814 490.907L209.059 380.116C189.476 369.627 172.989 354.098 161.269 335.104C149.548 316.111 143.011 294.327 142.319 271.961C141.627 249.595 146.805 227.442 157.329 207.747C167.853 188.052 183.349 171.516 202.245 159.814C221.141 148.113 242.766 141.661 264.928 141.115C287.09 140.568 309.001 145.945 328.441 156.701C347.881 167.457 364.158 183.21 375.623 202.362C387.087 221.514 393.332 243.386 393.723 265.759L517.961 263.544Z" fill="#8C007E"/>
</svg>
