<svg width="537" height="537" viewBox="0 0 537 537" fill="none" xmlns="http://www.w3.org/2000/svg">
<path d="M518 268C518 407.368 406.071 520.347 268 520.347C129.929 520.347 18 407.368 18 268C18 128.632 129.929 15.6526 268 15.6526C406.071 15.6526 518 128.632 518 268ZM142.408 268C142.408 338.014 198.637 394.772 268 394.772C337.363 394.772 393.592 338.014 393.592 268C393.592 197.986 337.363 141.228 268 141.228C198.637 141.228 142.408 197.986 142.408 268Z" fill="black" fill-opacity="0.05"/>
<path d="M517.961 263.544C517.17 218.345 504.365 174.19 480.884 135.696C457.403 97.2009 424.109 65.7798 384.482 44.7171C344.854 23.6543 300.349 13.7233 255.618 15.9623C210.887 18.2012 167.574 32.5279 130.205 57.4445C92.8367 82.3612 62.7854 116.953 43.1926 157.604C23.5999 198.254 15.1854 243.471 18.8285 288.528C22.4717 333.584 38.0389 376.825 63.9028 413.731C89.7666 450.637 124.977 479.852 165.854 498.323L216.624 383.845C196.064 374.555 178.354 359.861 165.345 341.298C152.336 322.736 144.507 300.987 142.674 278.325C140.842 255.663 145.074 232.92 154.929 212.474C164.783 192.028 179.898 174.629 198.693 162.097C217.489 149.565 239.274 142.359 261.772 141.233C284.271 140.106 306.655 145.101 326.587 155.695C346.518 166.289 363.264 182.093 375.074 201.455C386.885 220.817 393.325 243.025 393.723 265.759L517.961 263.544Z" fill="#8C007E"/>
</svg>
