<svg width="537" height="537" viewBox="0 0 537 537" fill="none" xmlns="http://www.w3.org/2000/svg">
<path d="M518 268C518 407.368 406.071 520.347 268 520.347C129.929 520.347 18 407.368 18 268C18 128.632 129.929 15.6526 268 15.6526C406.071 15.6526 518 128.632 518 268ZM142.408 268C142.408 338.014 198.637 394.772 268 394.772C337.363 394.772 393.592 338.014 393.592 268C393.592 197.986 337.363 141.228 268 141.228C198.637 141.228 142.408 197.986 142.408 268Z" fill="black" fill-opacity="0.05"/>
<path d="M517.961 263.544C517.159 217.719 504.008 172.979 479.92 134.127C455.831 95.2759 421.715 63.78 381.233 43.0209C340.751 22.2618 295.432 13.0233 250.142 16.2972C204.852 19.5711 161.3 35.2338 124.162 61.6038C87.0235 87.9739 57.7016 124.055 39.3437 165.975C20.9857 207.895 14.285 254.07 19.9608 299.543C25.6366 345.017 43.4746 388.071 71.5598 424.085C99.6451 460.098 136.917 487.711 179.375 503.959L223.424 386.68C202.069 378.508 183.322 364.62 169.196 346.506C155.07 328.392 146.098 306.737 143.244 283.865C140.389 260.994 143.759 237.769 152.993 216.685C162.226 195.6 176.974 177.452 195.654 164.189C214.333 150.926 236.238 143.048 259.018 141.401C281.798 139.754 304.592 144.401 324.953 154.842C345.314 165.283 362.474 181.125 374.589 200.666C386.705 220.207 393.32 242.71 393.723 265.759L517.961 263.544Z" fill="#8C007E"/>
</svg>
