<svg width="537" height="537" viewBox="0 0 537 537" fill="none" xmlns="http://www.w3.org/2000/svg">
<path d="M518 268C518 407.368 406.071 520.347 268 520.347C129.929 520.347 18 407.368 18 268C18 128.632 129.929 15.6526 268 15.6526C406.071 15.6526 518 128.632 518 268ZM142.408 268C142.408 338.014 198.637 394.772 268 394.772C337.363 394.772 393.592 338.014 393.592 268C393.592 197.986 337.363 141.228 268 141.228C198.637 141.228 142.408 197.986 142.408 268Z" fill="black" fill-opacity="0.05"/>
<path d="M517.961 263.544C517.147 216.993 503.589 171.576 478.788 132.319C453.987 93.0629 418.911 61.4975 377.439 41.116C335.967 20.7345 289.718 12.3315 243.809 16.8368C197.899 21.3421 154.119 38.5801 117.314 66.6433C80.5085 94.7065 52.1122 132.501 35.2672 175.844C18.4223 219.187 13.7854 266.39 21.8697 312.228C29.9541 358.066 50.4444 400.754 81.0734 435.566C111.702 470.379 151.276 495.959 195.415 509.477L231.492 389.456C209.291 382.657 189.387 369.79 173.981 352.281C158.576 334.771 148.27 313.301 144.204 290.245C140.138 267.19 142.47 243.449 150.942 221.648C159.415 199.848 173.697 180.839 192.209 166.724C210.721 152.609 232.741 143.938 255.832 141.672C278.924 139.406 302.186 143.633 323.045 153.884C343.904 164.135 361.546 180.012 374.02 199.757C386.494 219.501 393.313 242.345 393.723 265.759L517.961 263.544Z" fill="#8C007E"/>
</svg>
