<svg width="537" height="537" viewBox="0 0 537 537" fill="none" xmlns="http://www.w3.org/2000/svg">
<path d="M518 268C518 407.368 406.071 520.347 268 520.347C129.929 520.347 18 407.368 18 268C18 128.632 129.929 15.6526 268 15.6526C406.071 15.6526 518 128.632 518 268ZM142.408 268C142.408 338.014 198.637 394.772 268 394.772C337.363 394.772 393.592 338.014 393.592 268C393.592 197.986 337.363 141.228 268 141.228C198.637 141.228 142.408 197.986 142.408 268Z" fill="black" fill-opacity="0.05"/>
<path d="M517.961 263.544C517.136 216.369 503.224 170.372 477.805 130.775C452.386 91.1786 416.478 59.5683 374.158 39.5331C331.837 19.4978 284.8 11.8401 238.385 17.4294C191.97 23.0186 148.038 41.6309 111.575 71.1532C75.1115 100.676 47.5785 139.925 32.1014 184.447C16.6244 228.968 13.8231 276.978 24.0158 323.025C34.2084 369.073 56.9866 411.313 89.7645 444.952C122.542 478.59 164.007 502.279 209.451 513.329L238.551 391.393C215.695 385.836 194.839 373.921 178.353 357.001C161.867 340.082 150.41 318.836 145.283 295.676C140.157 272.516 141.566 248.368 149.35 225.975C157.135 203.582 170.983 183.841 189.323 168.992C207.663 154.143 229.759 144.782 253.105 141.97C276.45 139.159 300.108 143.011 321.394 153.088C342.68 163.165 360.741 179.064 373.526 198.98C386.311 218.896 393.308 242.031 393.723 265.759L517.961 263.544Z" fill="#8C007E"/>
</svg>
