<svg width="537" height="537" viewBox="0 0 537 537" fill="none" xmlns="http://www.w3.org/2000/svg">
<path d="M518 268C518 407.368 406.071 520.347 268 520.347C129.929 520.347 18 407.368 18 268C18 128.632 129.929 15.6526 268 15.6526C406.071 15.6526 518 128.632 518 268ZM142.408 268C142.408 338.014 198.637 394.772 268 394.772C337.363 394.772 393.592 338.014 393.592 268C393.592 197.986 337.363 141.228 268 141.228C198.637 141.228 142.408 197.986 142.408 268Z" fill="black" fill-opacity="0.05"/>
<path d="M517.961 263.544C517.124 215.694 502.824 169.07 476.729 129.113C450.634 89.1557 413.82 57.5124 370.582 37.8749C327.345 18.2374 279.466 11.4154 232.533 18.2049C185.6 24.9943 141.547 45.1153 105.514 76.2202C69.4814 107.325 42.9543 148.131 29.0278 193.878C15.1013 239.625 14.3497 288.426 26.8607 334.588C39.3717 380.75 64.6294 422.369 99.6871 454.589C134.745 486.809 178.157 508.303 224.858 516.562L246.301 393.019C222.811 388.865 200.977 378.055 183.344 361.849C165.711 345.643 153.007 324.71 146.714 301.492C140.421 278.274 140.799 253.728 147.804 230.719C154.809 207.71 168.151 187.185 186.275 171.54C204.398 155.896 226.555 145.775 250.161 142.361C273.767 138.946 297.849 142.377 319.596 152.254C341.343 162.131 359.859 178.047 372.984 198.144C386.109 218.241 393.302 241.692 393.723 265.759L517.961 263.544Z" fill="#8C007E"/>
</svg>
