<svg width="537" height="537" viewBox="0 0 537 537" fill="none" xmlns="http://www.w3.org/2000/svg">
<path d="M518 268C518 407.368 406.071 520.347 268 520.347C129.929 520.347 18 407.368 18 268C18 128.632 129.929 15.6526 268 15.6526C406.071 15.6526 518 128.632 518 268ZM142.408 268C142.408 338.014 198.637 394.772 268 394.772C337.363 394.772 393.592 338.014 393.592 268C393.592 197.986 337.363 141.228 268 141.228C198.637 141.228 142.408 197.986 142.408 268Z" fill="black" fill-opacity="0.05"/>
<path d="M517.961 263.544C517.112 215.006 502.41 167.745 475.619 127.429C448.828 87.1128 411.085 55.4526 366.915 36.2449C322.746 17.0373 274.025 11.0974 226.594 19.1377C179.164 27.178 135.039 48.857 99.5084 81.5753C63.9782 114.294 38.5517 156.662 26.278 203.601C14.0043 250.539 15.4043 300.055 30.3102 346.21C45.2161 392.366 72.9951 433.201 110.316 463.821C147.637 494.441 192.916 513.544 240.723 518.841L254.281 394.166C230.235 391.501 207.461 381.893 188.69 366.492C169.918 351.091 155.946 330.552 148.449 307.337C140.952 284.123 140.248 259.218 146.421 235.609C152.594 212 165.383 190.69 183.254 174.234C201.124 157.778 223.318 146.874 247.174 142.83C271.03 138.786 295.535 141.773 317.751 151.434C339.967 161.095 358.951 177.019 372.426 197.297C385.901 217.575 393.296 241.346 393.723 265.759L517.961 263.544Z" fill="#8C007E"/>
</svg>
