<svg width="537" height="537" viewBox="0 0 537 537" fill="none" xmlns="http://www.w3.org/2000/svg">
<path d="M518 268C518 407.368 406.071 520.347 268 520.347C129.929 520.347 18 407.368 18 268C18 128.632 129.929 15.6526 268 15.6526C406.071 15.6526 518 128.632 518 268ZM142.408 268C142.408 338.014 198.637 394.772 268 394.772C337.363 394.772 393.592 338.014 393.592 268C393.592 197.986 337.363 141.228 268 141.228C198.637 141.228 142.408 197.986 142.408 268Z" fill="black" fill-opacity="0.05"/>
<path d="M517.961 263.544C517.1 214.321 501.993 166.426 474.501 125.761C447.009 85.0955 408.333 53.4355 363.238 34.6808C318.142 15.926 268.596 10.8958 220.704 20.2097C172.811 29.5235 128.663 52.7747 93.6989 87.0991C58.7346 121.423 34.4808 165.322 23.9251 213.386C13.3694 261.451 16.9729 311.582 34.2918 357.606C51.6106 403.629 81.8884 443.533 121.395 472.403C160.902 501.274 207.912 517.849 256.635 520.087L262.284 394.792C237.778 393.666 214.133 385.33 194.262 370.809C174.391 356.288 159.163 336.217 150.452 313.069C141.741 289.921 139.928 264.706 145.238 240.531C150.547 216.356 162.746 194.276 180.332 177.012C197.918 159.748 220.123 148.053 244.211 143.369C268.3 138.684 293.22 141.214 315.902 150.647C338.584 160.08 358.036 176.004 371.864 196.458C385.691 216.911 393.29 241.001 393.723 265.759L517.961 263.544Z" fill="#8C007E"/>
</svg>
