<svg width="537" height="537" viewBox="0 0 537 537" fill="none" xmlns="http://www.w3.org/2000/svg">
<path d="M518 268C518 407.368 406.071 520.347 268 520.347C129.929 520.347 18 407.368 18 268C18 128.632 129.929 15.6526 268 15.6526C406.071 15.6526 518 128.632 518 268ZM142.408 268C142.408 338.014 198.637 394.772 268 394.772C337.363 394.772 393.592 338.014 393.592 268C393.592 197.986 337.363 141.228 268 141.228C198.637 141.228 142.408 197.986 142.408 268Z" fill="black" fill-opacity="0.05"/>
<path d="M517.961 263.544C517.088 213.643 501.575 165.123 473.383 124.12C445.191 83.1182 405.586 51.4751 359.578 33.1926C313.569 14.9102 263.223 10.8095 214.906 21.4092C166.588 32.0089 122.47 56.8328 88.1296 92.7418C53.7892 128.651 30.7693 174.032 21.9807 223.147C13.1922 272.262 19.0298 322.905 38.7554 368.671C58.4809 414.437 91.2084 453.271 132.799 480.262C174.39 507.253 222.977 521.189 272.414 520.308L270.22 394.903C245.355 395.347 220.917 388.337 199.998 374.761C179.079 361.186 162.618 341.653 152.697 318.634C142.775 295.615 139.839 270.144 144.26 245.44C148.68 220.737 160.258 197.912 177.531 179.85C194.803 161.789 216.993 149.303 241.295 143.972C265.597 138.641 290.92 140.703 314.061 149.899C337.202 159.094 357.122 175.01 371.301 195.633C385.481 216.256 393.284 240.66 393.723 265.759L517.961 263.544Z" fill="#8C007E"/>
</svg>
