<svg width="537" height="537" viewBox="0 0 537 537" fill="none" xmlns="http://www.w3.org/2000/svg">
<path d="M518 268C518 407.368 406.071 520.347 268 520.347C129.929 520.347 18 407.368 18 268C18 128.632 129.929 15.6526 268 15.6526C406.071 15.6526 518 128.632 518 268ZM142.408 268C142.408 338.014 198.637 394.772 268 394.772C337.363 394.772 393.592 338.014 393.592 268C393.592 197.986 337.363 141.228 268 141.228C198.637 141.228 142.408 197.986 142.408 268Z" fill="black" fill-opacity="0.05"/>
<path d="M517.961 263.544C517.076 212.953 501.144 163.799 472.233 122.463C443.323 81.1271 402.769 49.5185 355.836 31.7408C308.904 13.963 257.761 10.8373 209.046 22.7693C160.332 34.7013 116.296 61.14 82.6552 98.6531C49.0148 136.166 27.3236 183.021 20.3977 233.135C13.4717 283.248 21.6309 334.306 43.816 379.68C66.001 425.054 101.187 462.648 144.807 487.582C188.426 512.516 238.465 523.638 288.425 519.504L278.273 394.499C253.145 396.578 227.977 390.984 206.038 378.443C184.098 365.902 166.401 346.994 155.242 324.172C144.084 301.35 139.98 275.669 143.463 250.464C146.947 225.258 157.857 201.691 174.777 182.824C191.697 163.956 213.846 150.658 238.348 144.656C262.85 138.655 288.573 140.227 312.179 149.169C335.785 158.11 356.182 174.009 370.723 194.799C385.264 215.59 393.278 240.313 393.723 265.759L517.961 263.544Z" fill="#8C007E"/>
</svg>
