<svg width="537" height="537" viewBox="0 0 537 537" fill="none" xmlns="http://www.w3.org/2000/svg">
<path d="M518 268C518 407.368 406.071 520.347 268 520.347C129.929 520.347 18 407.368 18 268C18 128.632 129.929 15.6526 268 15.6526C406.071 15.6526 518 128.632 518 268ZM142.408 268C142.408 338.014 198.637 394.772 268 394.772C337.363 394.772 393.592 338.014 393.592 268C393.592 197.986 337.363 141.228 268 141.228C198.637 141.228 142.408 197.986 142.408 268Z" fill="black" fill-opacity="0.05"/>
<path d="M517.961 263.544C517.065 212.314 500.739 162.572 471.156 120.934C441.572 79.2964 400.132 47.7355 352.346 30.4484C304.56 13.1613 252.693 10.9671 203.642 24.1577C154.59 37.3483 110.679 65.2986 77.7478 104.292C44.8163 143.285 24.4248 191.473 19.2849 242.449C14.145 293.424 24.5003 344.771 48.9737 389.662C73.4472 434.552 110.879 470.859 156.292 493.754C201.705 516.65 252.946 525.048 303.203 517.833L285.706 393.659C260.428 397.288 234.655 393.063 211.814 381.548C188.973 370.032 170.146 351.771 157.836 329.192C145.527 306.614 140.318 280.788 142.904 255.148C145.489 229.509 155.745 205.272 172.309 185.66C188.872 166.047 210.958 151.989 235.63 145.355C260.301 138.72 286.389 139.824 310.423 148.519C334.458 157.214 355.301 173.088 370.181 194.03C385.061 214.973 393.272 239.991 393.723 265.759L517.961 263.544Z" fill="#8C007E"/>
</svg>
