<svg width="537" height="537" viewBox="0 0 537 537" fill="none" xmlns="http://www.w3.org/2000/svg">
<path d="M518 268C518 407.368 406.071 520.347 268 520.347C129.929 520.347 18 407.368 18 268C18 128.632 129.929 15.6526 268 15.6526C406.071 15.6526 518 128.632 518 268ZM142.408 268C142.408 338.014 198.637 394.772 268 394.772C337.363 394.772 393.592 338.014 393.592 268C393.592 197.986 337.363 141.228 268 141.228C198.637 141.228 142.408 197.986 142.408 268Z" fill="black" fill-opacity="0.05"/>
<path d="M517.961 263.544C517.053 211.617 500.293 161.237 469.97 119.28C439.647 77.3224 397.237 45.8307 348.527 29.1019C299.817 12.3732 247.18 11.2222 197.798 25.8062C148.416 40.3901 104.694 69.9985 72.5996 110.591C40.5048 151.184 21.5999 200.784 18.4646 252.623C15.3292 304.462 28.1161 356.014 55.0805 400.247C82.0448 444.479 121.873 479.236 169.131 499.775C216.388 520.314 268.773 525.635 319.138 515.012L293.721 392.24C268.389 397.583 242.041 394.907 218.272 384.576C194.503 374.245 174.47 356.764 160.908 334.516C147.346 312.269 140.914 286.339 142.491 260.266C144.068 234.192 153.577 209.245 169.719 188.828C185.862 168.411 207.853 153.519 232.69 146.184C257.528 138.848 284.003 139.427 308.503 147.841C333.002 156.255 354.333 172.095 369.585 193.198C384.837 214.302 393.266 239.641 393.723 265.759L517.961 263.544Z" fill="#8C007E"/>
</svg>
