<svg width="537" height="537" viewBox="0 0 537 537" fill="none" xmlns="http://www.w3.org/2000/svg">
<path d="M518 268C518 407.368 406.071 520.347 268 520.347C129.929 520.347 18 407.368 18 268C18 128.632 129.929 15.6526 268 15.6526C406.071 15.6526 518 128.632 518 268ZM142.408 268C142.408 338.014 198.637 394.772 268 394.772C337.363 394.772 393.592 338.014 393.592 268C393.592 197.986 337.363 141.228 268 141.228C198.637 141.228 142.408 197.986 142.408 268Z" fill="black" fill-opacity="0.05"/>
<path d="M517.961 263.544C517.041 210.939 499.853 159.939 468.803 117.679C437.753 75.4184 394.393 44.0115 344.788 27.851C295.183 11.6905 241.815 11.5846 192.147 27.5482C142.48 43.5119 98.9981 74.7465 67.7836 116.883C36.5692 159.02 19.1834 209.951 18.0583 262.553C16.9331 315.154 32.1248 366.796 61.5084 410.253C90.8919 453.71 132.998 486.81 181.936 504.923C230.875 523.036 284.198 525.255 334.448 511.271L301.421 390.358C276.147 397.392 249.327 396.275 224.712 387.165C200.098 378.055 178.92 361.407 164.141 339.549C149.362 317.691 141.721 291.717 142.287 265.26C142.853 238.803 151.597 213.186 167.297 191.993C182.997 170.799 204.867 155.089 229.848 147.06C254.83 139.031 281.672 139.084 306.622 147.212C331.572 155.34 353.381 171.137 368.998 192.393C384.615 213.648 393.26 239.3 393.723 265.759L517.961 263.544Z" fill="#8C007E"/>
</svg>
