<svg width="537" height="537" viewBox="0 0 537 537" fill="none" xmlns="http://www.w3.org/2000/svg">
<path d="M518 268C518 407.368 406.071 520.347 268 520.347C129.929 520.347 18 407.368 18 268C18 128.632 129.929 15.6526 268 15.6526C406.071 15.6526 518 128.632 518 268ZM142.408 268C142.408 338.014 198.637 394.772 268 394.772C337.363 394.772 393.592 338.014 393.592 268C393.592 197.986 337.363 141.228 268 141.228C198.637 141.228 142.408 197.986 142.408 268Z" fill="black" fill-opacity="0.05"/>
<path d="M517.961 263.544C517.029 210.269 499.414 158.659 467.64 116.108C435.866 73.5581 391.564 42.2519 341.082 26.6756C290.6 11.0993 236.529 12.0523 186.616 29.398C136.703 46.7438 93.5111 79.592 63.2283 123.236C32.9454 166.88 17.1261 219.08 18.0372 272.355C18.9483 325.631 36.543 377.249 68.3002 419.812C100.057 462.375 144.347 493.698 194.823 509.295C245.299 524.892 299.371 523.96 349.29 506.635L308.887 388.026C283.778 396.74 256.582 397.209 231.194 389.364C205.806 381.52 183.53 365.765 167.557 344.357C151.584 322.949 142.734 296.987 142.276 270.191C141.818 243.395 149.775 217.14 165.006 195.188C180.237 173.236 201.962 156.715 227.066 147.99C252.171 139.266 279.367 138.787 304.758 146.621C330.149 154.455 352.432 170.202 368.413 191.603C384.394 213.005 393.254 238.963 393.723 265.759L517.961 263.544Z" fill="#8C007E"/>
</svg>
