<svg width="537" height="537" viewBox="0 0 537 537" fill="none" xmlns="http://www.w3.org/2000/svg">
<path d="M518 268C518 407.368 406.071 520.347 268 520.347C129.929 520.347 18 407.368 18 268C18 128.632 129.929 15.6526 268 15.6526C406.071 15.6526 518 128.632 518 268ZM142.408 268C142.408 338.014 198.637 394.772 268 394.772C337.363 394.772 393.592 338.014 393.592 268C393.592 197.986 337.363 141.228 268 141.228C198.637 141.228 142.408 197.986 142.408 268Z" fill="black" fill-opacity="0.05"/>
<path d="M517.961 263.544C517.017 209.589 498.963 157.36 466.448 114.525C433.933 71.6887 388.67 40.5021 337.304 25.5426C285.937 10.5831 231.173 12.6386 181.049 31.4074C130.925 50.1762 88.0819 84.6696 58.8084 129.825C29.535 174.98 15.373 228.418 18.4014 282.295C21.4298 336.172 41.4891 387.65 75.6347 429.173C109.78 470.696 156.214 500.076 208.119 513.002C260.025 525.927 314.668 521.717 364.028 500.989L316.299 385.186C291.473 395.612 263.989 397.73 237.882 391.229C211.775 384.727 188.42 369.95 171.246 349.065C154.072 328.18 143.983 302.288 142.459 275.19C140.936 248.091 148.059 221.213 162.783 198.502C177.507 175.79 199.055 158.441 224.266 149.001C249.477 139.561 277.022 138.527 302.858 146.051C328.693 153.575 351.459 169.261 367.813 190.806C384.167 212.352 393.248 238.621 393.723 265.759L517.961 263.544Z" fill="#8C007E"/>
</svg>
