<svg width="537" height="537" viewBox="0 0 537 537" fill="none" xmlns="http://www.w3.org/2000/svg">
<path d="M518 268C518 407.368 406.071 520.347 268 520.347C129.929 520.347 18 407.368 18 268C18 128.632 129.929 15.6526 268 15.6526C406.071 15.6526 518 128.632 518 268ZM142.408 268C142.408 338.014 198.637 394.772 268 394.772C337.363 394.772 393.592 338.014 393.592 268C393.592 197.986 337.363 141.228 268 141.228C198.637 141.228 142.408 197.986 142.408 268Z" fill="black" fill-opacity="0.05"/>
<path d="M517.961 263.544C517.005 208.895 498.496 156.037 465.219 112.919C431.941 69.801 385.694 38.7546 333.432 24.4491C281.171 10.1436 225.721 13.3524 175.421 33.593C125.122 53.8335 82.6925 90.0115 54.5149 136.686C26.3373 183.36 13.9346 238.007 19.1722 292.409C24.4099 346.81 47.0046 398.024 83.5583 438.349C120.112 478.673 168.648 505.928 221.867 516.014C275.087 526.1 330.112 518.472 378.666 494.277L323.662 381.81C299.24 393.98 271.564 397.817 244.797 392.744C218.029 387.671 193.617 373.962 175.231 353.68C156.846 333.398 145.481 307.639 142.847 280.277C140.213 252.915 146.451 225.429 160.623 201.953C174.796 178.477 196.136 160.281 221.436 150.1C246.735 139.92 274.625 138.306 300.911 145.501C327.197 152.696 350.458 168.312 367.195 189.999C383.933 211.686 393.242 238.272 393.723 265.759L517.961 263.544Z" fill="#8C007E"/>
</svg>
