<svg width="537" height="537" viewBox="0 0 537 537" fill="none" xmlns="http://www.w3.org/2000/svg">
<path d="M518 268C518 407.368 406.071 520.347 268 520.347C129.929 520.347 18 407.368 18 268C18 128.632 129.929 15.6526 268 15.6526C406.071 15.6526 518 128.632 518 268ZM142.408 268C142.408 338.014 198.637 394.772 268 394.772C337.363 394.772 393.592 338.014 393.592 268C393.592 197.986 337.363 141.228 268 141.228C198.637 141.228 142.408 197.986 142.408 268Z" fill="black" fill-opacity="0.05"/>
<path d="M517.961 263.544C516.993 208.227 498.042 154.763 464.023 111.382C430.004 68.001 382.804 37.1072 329.688 23.4554C276.571 9.8036 220.481 14.1505 170.051 35.8271C119.622 57.5037 77.6471 95.3085 50.5881 143.423C23.529 191.537 12.8852 247.295 20.2949 302.113C27.7045 356.932 52.7569 407.773 91.5962 446.812C130.436 485.851 180.909 510.924 235.248 518.173C289.588 525.421 344.781 514.442 392.333 486.926L330.536 378.113C306.619 391.953 278.858 397.475 251.527 393.829C224.196 390.184 198.809 377.573 179.274 357.937C159.739 338.302 147.139 312.73 143.412 285.158C139.685 257.586 145.038 229.542 158.648 205.341C172.258 181.141 193.37 162.127 218.735 151.224C244.099 140.321 272.311 138.135 299.027 145.001C325.743 151.868 349.483 167.406 366.594 189.226C383.704 211.045 393.236 237.936 393.723 265.759L517.961 263.544Z" fill="#8C007E"/>
</svg>
