<svg width="537" height="537" viewBox="0 0 537 537" fill="none" xmlns="http://www.w3.org/2000/svg">
<path d="M518 268C518 407.368 406.071 520.347 268 520.347C129.929 520.347 18 407.368 18 268C18 128.632 129.929 15.6526 268 15.6526C406.071 15.6526 518 128.632 518 268ZM142.408 268C142.408 338.014 198.637 394.772 268 394.772C337.363 394.772 393.592 338.014 393.592 268C393.592 197.986 337.363 141.228 268 141.228C198.637 141.228 142.408 197.986 142.408 268Z" fill="black" fill-opacity="0.05"/>
<path d="M517.961 263.544C516.981 207.525 497.559 153.428 462.757 109.781C427.955 66.1338 379.752 35.4185 325.747 22.4768C271.741 9.53515 215.004 15.1032 164.48 38.3033C113.955 61.5033 72.5168 101.016 46.6962 150.613C20.8755 200.209 12.1412 257.069 21.8701 312.23C31.599 367.391 59.2377 417.714 100.43 455.269C141.621 492.823 194.024 515.472 249.376 519.646C304.729 523.82 359.883 509.281 406.146 478.321L337.483 373.785C314.214 389.357 286.473 396.67 258.633 394.571C230.792 392.471 204.435 381.079 183.717 362.191C162.999 343.302 149.097 317.99 144.204 290.246C139.311 262.502 143.704 233.903 156.691 208.958C169.678 184.012 190.52 164.138 215.932 152.469C241.345 140.8 269.882 138 297.045 144.509C324.208 151.018 348.453 166.467 365.957 188.421C383.461 210.374 393.23 237.583 393.723 265.759L517.961 263.544Z" fill="#8C007E"/>
</svg>
