<svg width="537" height="537" viewBox="0 0 537 537" fill="none" xmlns="http://www.w3.org/2000/svg">
<path d="M518 268C518 407.368 406.071 520.347 268 520.347C129.929 520.347 18 407.368 18 268C18 128.632 129.929 15.6526 268 15.6526C406.071 15.6526 518 128.632 518 268ZM142.408 268C142.408 338.014 198.637 394.772 268 394.772C337.363 394.772 393.592 338.014 393.592 268C393.592 197.986 337.363 141.228 268 141.228C198.637 141.228 142.408 197.986 142.408 268Z" fill="black" fill-opacity="0.05"/>
<path d="M517.961 263.544C516.97 206.904 497.127 152.248 461.626 108.373C426.125 64.4979 377.031 33.9565 322.246 21.6646C267.461 9.37277 210.171 16.0454 159.6 40.6086C109.028 65.1717 68.1147 106.197 43.446 157.08C18.7772 207.963 11.7878 265.744 23.6026 321.124C35.4174 376.504 65.3492 426.26 108.58 462.384C151.811 498.508 205.827 518.898 261.932 520.273C318.038 521.648 372.97 503.927 417.887 469.964L343.389 369.582C320.797 386.664 293.168 395.577 264.948 394.886C236.729 394.194 209.56 383.938 187.817 365.769C166.073 347.6 151.018 322.574 145.075 294.72C139.133 266.866 142.648 237.803 155.056 212.21C167.464 186.618 188.042 165.983 213.478 153.629C238.914 141.274 267.729 137.918 295.284 144.101C322.839 150.283 347.532 165.644 365.388 187.712C383.244 209.78 393.225 237.271 393.723 265.759L517.961 263.544Z" fill="#8C007E"/>
</svg>
