<svg width="537" height="537" viewBox="0 0 537 537" fill="none" xmlns="http://www.w3.org/2000/svg">
<path d="M518 268C518 407.368 406.071 520.347 268 520.347C129.929 520.347 18 407.368 18 268C18 128.632 129.929 15.6526 268 15.6526C406.071 15.6526 518 128.632 518 268ZM142.408 268C142.408 338.014 198.637 394.772 268 394.772C337.363 394.772 393.592 338.014 393.592 268C393.592 197.986 337.363 141.228 268 141.228C198.637 141.228 142.408 197.986 142.408 268Z" fill="black" fill-opacity="0.05"/>
<path d="M517.961 263.544C516.958 206.194 496.627 150.899 460.321 106.773C424.014 62.6472 373.897 32.3232 318.23 20.7985C262.563 9.27382 204.666 17.2361 154.083 43.3732C103.499 69.5103 63.246 112.262 39.9578 164.584C16.6696 216.906 11.7357 275.675 25.9692 331.206C40.2027 386.738 72.7542 435.718 118.259 470.074C163.764 504.43 219.508 522.113 276.302 520.208C333.097 518.303 387.555 496.924 430.7 459.595L349.833 364.366C328.132 383.142 300.742 393.895 272.176 394.853C243.61 395.811 215.573 386.917 192.685 369.637C169.797 352.357 153.425 327.722 146.266 299.791C139.107 271.86 141.588 242.301 153.302 215.985C165.015 189.669 185.261 168.166 210.703 155.019C236.145 141.873 265.265 137.868 293.264 143.665C321.263 149.462 346.47 164.714 364.732 186.908C382.993 209.102 393.218 236.913 393.723 265.759L517.961 263.544Z" fill="#8C007E"/>
</svg>
