<svg width="537" height="537" viewBox="0 0 537 537" fill="none" xmlns="http://www.w3.org/2000/svg">
<path d="M518 268C518 407.368 406.071 520.347 268 520.347C129.929 520.347 18 407.368 18 268C18 128.632 129.929 15.6526 268 15.6526C406.071 15.6526 518 128.632 518 268ZM142.408 268C142.408 338.014 198.637 394.772 268 394.772C337.363 394.772 393.592 338.014 393.592 268C393.592 197.986 337.363 141.228 268 141.228C198.637 141.228 142.408 197.986 142.408 268Z" fill="black" fill-opacity="0.05"/>
<path d="M517.961 263.544C516.946 205.499 496.133 149.582 459.033 105.221C421.933 60.8596 370.814 30.7672 314.294 20.0169C257.774 9.26655 199.311 18.5159 148.76 46.2055C98.2092 73.8952 58.6628 118.331 36.788 172.023C14.9131 225.715 12.0478 285.377 28.6751 340.953C45.3023 396.528 80.4051 444.617 128.066 477.113C175.726 509.608 233.029 524.522 290.314 519.34C347.599 514.159 401.362 489.198 442.539 448.667L355.788 358.87C335.077 379.256 308.036 391.81 279.223 394.417C250.411 397.023 221.589 389.522 197.617 373.177C173.645 356.833 155.99 332.646 147.627 304.693C139.264 276.74 140.705 246.732 151.707 219.726C162.71 192.721 182.6 170.371 208.026 156.444C233.451 142.517 262.857 137.865 291.285 143.272C319.712 148.679 345.424 163.815 364.084 186.127C382.744 208.439 393.212 236.564 393.723 265.759L517.961 263.544Z" fill="#8C007E"/>
</svg>
