<svg width="537" height="537" viewBox="0 0 537 537" fill="none" xmlns="http://www.w3.org/2000/svg">
<path d="M518 268C518 407.368 406.071 520.347 268 520.347C129.929 520.347 18 407.368 18 268C18 128.632 129.929 15.6526 268 15.6526C406.071 15.6526 518 128.632 518 268ZM142.408 268C142.408 338.014 198.637 394.772 268 394.772C337.363 394.772 393.592 338.014 393.592 268C393.592 197.986 337.363 141.228 268 141.228C198.637 141.228 142.408 197.986 142.408 268Z" fill="black" fill-opacity="0.05"/>
<path d="M517.961 263.544C516.934 204.819 495.644 148.295 457.762 103.713C419.879 59.1305 367.776 29.283 310.433 19.314C253.089 9.34499 194.096 19.8789 143.621 49.1003C93.1451 78.3217 54.3488 124.4 33.9176 179.395C13.4865 234.39 12.7002 294.856 31.6944 350.373C50.6886 405.89 88.2734 452.981 137.972 483.529C187.67 514.078 246.369 526.171 303.952 517.724C361.535 509.278 414.396 480.821 453.425 437.258L361.263 353.132C341.633 375.043 315.045 389.356 286.083 393.604C257.12 397.852 227.596 391.77 202.6 376.405C177.603 361.04 158.699 337.355 149.145 309.431C139.592 281.508 139.987 251.095 150.264 223.434C160.54 195.774 180.053 172.597 205.441 157.9C230.828 143.202 260.5 137.904 289.342 142.918C318.185 147.932 344.391 162.945 363.444 185.368C382.498 207.792 393.206 236.222 393.723 265.759L517.961 263.544Z" fill="#8C007E"/>
</svg>
