<svg width="537" height="537" viewBox="0 0 537 537" fill="none" xmlns="http://www.w3.org/2000/svg">
<path d="M518 268C518 407.368 406.071 520.347 268 520.347C129.929 520.347 18 407.368 18 268C18 128.632 129.929 15.6526 268 15.6526C406.071 15.6526 518 128.632 518 268ZM142.408 268C142.408 338.014 198.637 394.772 268 394.772C337.363 394.772 393.592 338.014 393.592 268C393.592 197.986 337.363 141.228 268 141.228C198.637 141.228 142.408 197.986 142.408 268Z" fill="black" fill-opacity="0.05"/>
<path d="M517.961 263.544C516.922 204.182 495.181 147.09 456.56 102.309C417.939 57.5285 364.913 27.9272 306.806 18.7112C248.699 9.49528 189.234 21.2549 138.869 51.922C88.5032 82.589 50.4629 130.199 31.4381 186.38C12.4133 242.56 13.6224 303.713 34.8528 359.082C56.0831 414.452 95.9751 460.492 147.513 489.107C199.05 517.721 258.933 527.076 316.629 515.527C374.325 503.979 426.139 472.265 462.959 425.965L366.059 347.452C347.539 370.739 321.478 386.69 292.459 392.499C263.44 398.308 233.32 393.602 207.398 379.21C181.477 364.818 161.412 341.661 150.734 313.812C140.056 285.963 139.448 255.205 149.016 226.948C158.585 198.69 177.718 174.744 203.051 159.319C228.383 143.895 258.292 137.98 287.518 142.615C316.744 147.251 343.415 162.139 362.84 184.662C382.265 207.186 393.201 235.901 393.723 265.759L517.961 263.544Z" fill="#8C007E"/>
</svg>
