<svg width="537" height="537" viewBox="0 0 537 537" fill="none" xmlns="http://www.w3.org/2000/svg">
<path d="M518 268C518 407.368 406.071 520.347 268 520.347C129.929 520.347 18 407.368 18 268C18 128.632 129.929 15.6526 268 15.6526C406.071 15.6526 518 128.632 518 268ZM142.408 268C142.408 338.014 198.637 394.772 268 394.772C337.363 394.772 393.592 338.014 393.592 268C393.592 197.986 337.363 141.228 268 141.228C198.637 141.228 142.408 197.986 142.408 268Z" fill="black" fill-opacity="0.05"/>
<path d="M517.961 263.544C516.91 203.475 494.662 145.756 455.217 100.765C415.773 55.774 361.72 26.4643 302.779 18.1064C243.838 9.74853 183.877 22.8909 133.679 55.1702C83.4798 87.4494 46.3373 136.747 28.9304 194.199C11.5235 251.651 14.9943 313.486 38.7187 368.586C62.4431 423.685 104.864 468.433 158.354 494.782C211.844 521.132 272.892 527.354 330.52 512.329C388.148 497.305 438.575 462.02 472.733 412.82L370.975 340.84C353.794 365.586 328.431 383.333 299.446 390.89C270.46 398.447 239.755 395.318 212.851 382.065C185.948 368.812 164.611 346.305 152.678 318.592C140.746 290.878 139 259.777 147.755 230.88C156.51 201.984 175.192 177.188 200.44 160.953C225.689 144.717 255.847 138.107 285.493 142.311C315.138 146.515 342.325 161.257 362.165 183.886C382.004 206.515 393.194 235.546 393.723 265.759L517.961 263.544Z" fill="#8C007E"/>
</svg>
