<svg width="537" height="537" viewBox="0 0 537 537" fill="none" xmlns="http://www.w3.org/2000/svg">
<path d="M518 268C518 407.368 406.071 520.347 268 520.347C129.929 520.347 18 407.368 18 268C18 128.632 129.929 15.6526 268 15.6526C406.071 15.6526 518 128.632 518 268ZM142.408 268C142.408 338.014 198.637 394.772 268 394.772C337.363 394.772 393.592 338.014 393.592 268C393.592 197.986 337.363 141.228 268 141.228C198.637 141.228 142.408 197.986 142.408 268Z" fill="black" fill-opacity="0.05"/>
<path d="M517.961 263.544C516.898 202.806 494.165 144.493 453.934 99.3126C413.704 54.1322 358.677 25.1171 298.957 17.5947C239.238 10.0724 178.834 24.5479 128.837 58.3632C78.8407 92.1786 42.607 143.064 26.7893 201.676C10.9716 260.288 16.6316 322.693 42.7301 377.431C68.8287 432.17 113.614 475.569 168.862 499.658C224.111 523.748 286.114 526.912 343.488 508.569C400.862 490.226 449.754 451.607 481.188 399.804L375.227 334.294C359.417 360.349 334.825 379.773 305.968 388.999C277.111 398.225 245.925 396.634 218.137 384.517C190.348 372.401 167.823 350.573 154.696 323.041C141.569 295.509 138.722 264.121 146.678 234.641C154.634 205.161 172.858 179.567 198.005 162.559C223.152 145.551 253.533 138.27 283.571 142.054C313.608 145.837 341.285 160.431 361.519 183.155C381.754 205.88 393.188 235.209 393.723 265.759L517.961 263.544Z" fill="#8C007E"/>
</svg>
