<svg width="537" height="537" viewBox="0 0 537 537" fill="none" xmlns="http://www.w3.org/2000/svg">
<path d="M518 268C518 407.368 406.071 520.347 268 520.347C129.929 520.347 18 407.368 18 268C18 128.632 129.929 15.6526 268 15.6526C406.071 15.6526 518 128.632 518 268ZM142.408 268C142.408 338.014 198.637 394.772 268 394.772C337.363 394.772 393.592 338.014 393.592 268C393.592 197.986 337.363 141.228 268 141.228C198.637 141.228 142.408 197.986 142.408 268Z" fill="black" fill-opacity="0.05"/>
<path d="M517.961 263.544C516.886 202.081 493.62 143.127 452.532 97.7515C411.445 52.3762 355.361 23.7004 294.81 17.1079C234.26 10.5154 173.408 26.4597 123.679 61.9472C73.9505 97.4347 38.7653 150.025 24.7298 209.843C10.6942 269.662 18.7736 332.595 47.4511 386.826C76.1285 441.058 123.432 482.858 180.479 504.379C237.527 525.899 300.395 525.661 357.281 503.707C414.166 481.753 461.156 439.595 489.429 385.147L379.372 326.922C365.152 354.307 341.517 375.512 312.905 386.554C284.294 397.596 252.673 397.716 223.98 386.891C195.286 376.067 171.494 355.043 157.07 327.766C142.647 300.489 138.583 268.836 145.642 238.749C152.702 208.662 170.399 182.211 195.411 164.362C220.423 146.512 251.03 138.493 281.485 141.809C311.94 145.125 340.148 159.548 360.814 182.37C381.48 205.192 393.182 234.845 393.723 265.759L517.961 263.544Z" fill="#8C007E"/>
</svg>
