<svg width="537" height="537" viewBox="0 0 537 537" fill="none" xmlns="http://www.w3.org/2000/svg">
<path d="M518 268C518 407.368 406.071 520.347 268 520.347C129.929 520.347 18 407.368 18 268C18 128.632 129.929 15.6526 268 15.6526C406.071 15.6526 518 128.632 518 268ZM142.408 268C142.408 338.014 198.637 394.772 268 394.772C337.363 394.772 393.592 338.014 393.592 268C393.592 197.986 337.363 141.228 268 141.228C198.637 141.228 142.408 197.986 142.408 268Z" fill="black" fill-opacity="0.05"/>
<path d="M517.961 263.544C516.875 201.448 493.14 141.937 451.3 96.4008C409.46 50.8646 352.454 22.5018 291.191 16.7407C229.928 10.9795 168.712 28.2247 119.258 65.1757C69.8049 102.127 35.588 156.188 23.1562 217.013C10.7244 277.838 20.951 341.155 51.8786 394.844C82.8063 448.534 132.263 488.826 190.782 508.009C249.302 527.191 312.775 523.917 369.053 498.814C425.331 473.71 470.46 428.539 495.805 371.947L382.579 320.282C369.832 348.746 347.133 371.466 318.827 384.092C290.52 396.719 258.596 398.366 229.162 388.717C199.728 379.069 174.853 358.803 159.297 331.799C143.742 304.795 138.598 272.948 144.851 242.355C151.104 211.762 168.314 184.571 193.187 165.985C218.061 147.4 248.851 138.726 279.664 141.624C310.478 144.522 339.15 158.787 360.195 181.691C381.239 204.594 393.177 234.526 393.723 265.759L517.961 263.544Z" fill="#8C007E"/>
</svg>
