<svg width="537" height="537" viewBox="0 0 537 537" fill="none" xmlns="http://www.w3.org/2000/svg">
<path d="M518 268C518 407.368 406.071 520.347 268 520.347C129.929 520.347 18 407.368 18 268C18 128.632 129.929 15.6526 268 15.6526C406.071 15.6526 518 128.632 518 268ZM142.408 268C142.408 338.014 198.637 394.772 268 394.772C337.363 394.772 393.592 338.014 393.592 268C393.592 197.986 337.363 141.228 268 141.228C198.637 141.228 142.408 197.986 142.408 268Z" fill="black" fill-opacity="0.05"/>
<path d="M517.961 263.544C516.862 200.728 492.588 140.584 449.887 94.8749C407.185 49.1658 349.127 21.1789 287.066 16.3875C225.005 11.5961 163.406 30.3447 114.314 68.9669C65.2221 107.589 32.1687 163.307 21.618 225.224C11.0672 287.141 23.7778 350.804 57.2642 403.763C90.7505 456.723 142.604 495.169 202.684 511.583C262.764 527.997 326.75 521.199 382.128 492.518C437.505 463.837 480.292 415.336 502.121 356.5L385.756 312.513C374.777 342.106 353.256 366.5 325.403 380.926C297.549 395.352 265.367 398.771 235.148 390.515C204.93 382.259 178.849 362.922 162.006 336.285C145.164 309.648 138.77 277.627 144.077 246.485C149.384 215.342 166.009 187.318 190.7 167.892C215.392 148.466 246.375 139.036 277.59 141.446C308.804 143.856 338.006 157.933 359.484 180.923C380.961 203.914 393.17 234.164 393.723 265.759L517.961 263.544Z" fill="#8C007E"/>
</svg>
