<svg width="537" height="537" viewBox="0 0 537 537" fill="none" xmlns="http://www.w3.org/2000/svg">
<path d="M518 268C518 407.368 406.071 520.347 268 520.347C129.929 520.347 18 407.368 18 268C18 128.632 129.929 15.6526 268 15.6526C406.071 15.6526 518 128.632 518 268ZM142.408 268C142.408 338.014 198.637 394.772 268 394.772C337.363 394.772 393.592 338.014 393.592 268C393.592 197.986 337.363 141.228 268 141.228C198.637 141.228 142.408 197.986 142.408 268Z" fill="black" fill-opacity="0.05"/>
<path d="M517.961 263.544C516.85 200.024 492.043 139.263 448.493 93.3956C404.944 47.528 345.857 19.9289 283.031 16.1091C220.205 12.2893 158.264 32.53 109.575 72.7894C60.886 113.049 29.033 170.364 20.376 233.291C11.7191 296.218 26.8954 360.126 62.8746 412.253C98.8538 464.38 152.988 500.891 214.468 514.494C275.948 528.098 340.249 517.794 394.532 485.639C448.815 453.484 489.085 401.846 507.301 341.034L388.361 304.734C379.199 335.32 358.945 361.293 331.642 377.466C304.339 393.639 271.998 398.822 241.075 391.979C210.152 385.137 182.924 366.773 164.828 340.555C146.732 314.337 139.098 282.193 143.453 250.543C147.807 218.892 163.828 190.064 188.317 169.815C212.806 149.566 243.961 139.385 275.56 141.306C307.16 143.228 336.879 157.109 358.783 180.179C380.687 203.249 393.164 233.81 393.723 265.759L517.961 263.544Z" fill="#8C007E"/>
</svg>
