<svg width="537" height="537" viewBox="0 0 537 537" fill="none" xmlns="http://www.w3.org/2000/svg">
<path d="M518 268C518 407.368 406.071 520.347 268 520.347C129.929 520.347 18 407.368 18 268C18 128.632 129.929 15.6526 268 15.6526C406.071 15.6526 518 128.632 518 268ZM142.408 268C142.408 338.014 198.637 394.772 268 394.772C337.363 394.772 393.592 338.014 393.592 268C393.592 197.986 337.363 141.228 268 141.228C198.637 141.228 142.408 197.986 142.408 268Z" fill="black" fill-opacity="0.05"/>
<path d="M517.961 263.544C516.838 199.341 491.509 137.985 447.133 91.9741C402.758 45.9632 342.674 18.7588 279.121 15.9024C215.568 13.0459 153.327 34.7524 105.075 76.6001C56.824 118.448 26.1926 177.289 19.4205 241.137C12.6485 304.986 30.2453 369.038 68.6265 420.248C107.008 471.458 163.286 505.972 225.998 516.76C288.709 527.549 353.137 513.8 406.156 478.314C459.176 442.828 496.799 388.275 511.361 325.767L390.404 297.055C383.079 328.495 364.156 355.933 337.488 373.782C310.821 391.63 278.416 398.545 246.874 393.119C215.332 387.693 187.026 370.333 167.721 344.576C148.416 318.819 139.566 286.603 142.972 254.489C146.378 222.375 161.785 192.78 186.054 171.732C210.323 150.683 241.628 139.766 273.593 141.202C305.559 142.639 335.779 156.322 358.099 179.464C380.418 202.606 393.158 233.467 393.723 265.759L517.961 263.544Z" fill="#8C007E"/>
</svg>
