<svg width="537" height="537" viewBox="0 0 537 537" fill="none" xmlns="http://www.w3.org/2000/svg">
<path d="M518 268C518 407.368 406.071 520.347 268 520.347C129.929 520.347 18 407.368 18 268C18 128.632 129.929 15.6526 268 15.6526C406.071 15.6526 518 128.632 518 268ZM142.408 268C142.408 338.014 198.637 394.772 268 394.772C337.363 394.772 393.592 338.014 393.592 268C393.592 197.986 337.363 141.228 268 141.228C198.637 141.228 142.408 197.986 142.408 268Z" fill="black" fill-opacity="0.05"/>
<path d="M517.961 263.544C516.826 198.692 490.996 136.771 445.83 90.6329C400.664 44.4949 339.632 17.6834 275.401 15.7632C211.17 13.8429 148.673 36.9614 100.881 80.3203C53.0896 123.679 23.6735 183.949 18.7384 248.62C13.8033 313.291 33.7282 377.396 74.3776 427.632C115.027 477.867 173.279 510.374 237.044 518.405C300.809 526.437 365.188 509.376 416.822 470.765C468.455 432.153 503.376 374.955 514.336 311.043L391.9 289.649C386.387 321.795 368.823 350.564 342.853 369.985C316.883 389.405 284.502 397.986 252.43 393.946C220.358 389.907 191.059 373.557 170.614 348.29C150.168 323.023 140.147 290.78 142.629 258.252C145.111 225.725 159.906 195.411 183.944 173.603C207.982 151.794 239.416 140.167 271.723 141.132C304.029 142.098 334.726 155.584 357.443 178.79C380.16 201.996 393.152 233.14 393.723 265.759L517.961 263.544Z" fill="#8C007E"/>
</svg>
