<svg width="537" height="537" viewBox="0 0 537 537" fill="none" xmlns="http://www.w3.org/2000/svg">
<path d="M518 268C518 407.368 406.071 520.347 268 520.347C129.929 520.347 18 407.368 18 268C18 128.632 129.929 15.6526 268 15.6526C406.071 15.6526 518 128.632 518 268ZM142.408 268C142.408 338.014 198.637 394.772 268 394.772C337.363 394.772 393.592 338.014 393.592 268C393.592 197.986 337.363 141.228 268 141.228C198.637 141.228 142.408 197.986 142.408 268Z" fill="black" fill-opacity="0.05"/>
<path d="M517.961 263.544C516.814 197.971 490.42 135.424 444.372 89.1558C398.324 42.8873 336.239 16.5322 271.271 15.6742C206.303 14.8162 143.556 39.5227 96.3241 84.5592C49.0923 129.596 21.0865 191.424 18.24 256.945C15.3935 322.465 37.9301 386.531 81.0749 435.568C124.22 484.605 184.583 514.761 249.376 519.646C314.169 524.532 378.301 503.764 428.185 461.741C478.069 419.719 509.786 359.745 516.615 294.524L393.046 281.341C389.611 314.145 373.659 344.31 348.568 365.446C323.478 386.582 291.222 397.028 258.633 394.571C226.044 392.113 195.683 376.946 173.982 352.282C152.282 327.617 140.946 295.394 142.378 262.44C143.81 229.485 157.896 198.387 181.652 175.735C205.408 153.083 236.968 140.656 269.645 141.088C302.322 141.519 333.549 154.775 356.71 178.047C379.871 201.318 393.146 232.777 393.723 265.759L517.961 263.544Z" fill="#8C007E"/>
</svg>
