<svg width="537" height="537" viewBox="0 0 537 537" fill="none" xmlns="http://www.w3.org/2000/svg">
<path d="M518 268C518 407.368 406.071 520.347 268 520.347C129.929 520.347 18 407.368 18 268C18 128.632 129.929 15.6526 268 15.6526C406.071 15.6526 518 128.632 518 268ZM142.408 268C142.408 338.014 198.637 394.772 268 394.772C337.363 394.772 393.592 338.014 393.592 268C393.592 197.986 337.363 141.228 268 141.228C198.637 141.228 142.408 197.986 142.408 268Z" fill="black" fill-opacity="0.05"/>
<path d="M517.961 263.544C516.802 197.316 489.892 134.203 443.039 87.8263C396.185 41.4491 333.145 15.5266 267.523 15.653C201.9 15.7795 138.959 41.9449 92.2808 88.5023C45.603 135.06 18.932 198.276 18.0239 264.508C17.1158 330.74 42.0434 394.677 87.427 442.52C132.811 490.364 195.011 518.277 260.604 520.237C326.198 522.196 389.925 498.045 438.032 452.994C486.139 407.944 514.769 345.607 517.743 279.436L393.613 273.752C392.118 307.034 377.718 338.387 353.521 361.047C329.325 383.706 297.272 395.853 264.28 394.868C231.289 393.882 200.004 379.842 177.177 355.779C154.351 331.715 141.813 299.556 142.269 266.244C142.726 232.931 156.141 201.135 179.618 177.718C203.096 154.301 234.754 141.141 267.76 141.077C300.766 141.013 332.473 154.052 356.039 177.378C379.605 200.704 393.14 232.448 393.723 265.759L517.961 263.544Z" fill="#8C007E"/>
</svg>
